<?xml version="1.0" encoding="utf-8"?>
<!-- Generator: Adobe Illustrator 16.0.0, SVG Export Plug-In . SVG Version: 6.00 Build 0)  -->
<!DOCTYPE svg PUBLIC "-//W3C//DTD SVG 1.1//EN" "http://www.w3.org/Graphics/SVG/1.1/DTD/svg11.dtd">
<svg version="1.1" xmlns="http://www.w3.org/2000/svg" xmlns:xlink="http://www.w3.org/1999/xlink" x="0px" y="0px"
	 width="840.339px" height="1879.519px" viewBox="0 0 840.339 1879.519" enable-background="new 0 0 840.339 1879.519"
	 xml:space="preserve">
<g id="general_map">
	<path fill="#3F4040" d="M791.622,1879.519c17.48-113.35,29.494-227.477,35.994-341.986
		c7.125-132.262,11.367-264.662,12.723-397.111l-0.384-113.404c-2.046-113.014-8.336-225.911-18.855-338.453l-23.455-248.362
		l-6.679-30.017l-202.215,24.627L548.446,0L115.942,52.671l62.356,217.461v937.607c-12.344,62.236-28.164,123.73-47.385,184.197
		l-13.144,41.373l-13.144,41.369l-23.586,74.246l-23.548,74.111L0,1788.688v90.824L791.622,1879.519L791.622,1879.519z"/>
	<path fill="#D0603A" stroke="#FFFFFF" stroke-width="1.8643" stroke-miterlimit="3.8637" d="M296.761,1323.386V574.357H188.934
		V268.639L129.603,61.722L538.869,11.88l40.303,434.809l203.508-24.781l4.44,19.954l23.393,247.696
		c10.491,112.25,16.766,224.854,18.809,337.572l0.385,113.254c-0.586,57.029-1.707,114.051-3.36,171.055h-21.225H500.326v11.947
		H296.761L296.761,1323.386z"/>
	<path fill="#FFFFFF" d="M443.867,1551.466v-74.002l56.459-53.459v-100.619h-46.959v19.744h-24.103h-42.161l0.882,40.285
		l19.017-0.16l-19.162,48.705c-9.937-3.602-20.072-6.627-30.354-9.051c-12.715-3.006-25.628-5.092-38.639-6.246
		c-23.188-2.059-46.544-1.152-69.499,2.707l-29.043,5.828v55.27h121.18c16.88-0.701,33.757-1.488,50.63-2.371v73.369H443.867
		L443.867,1551.466z"/>
	<path id="store--1.03" fill="#D58F29" stroke="#FFFFFF" stroke-width="1.7789" stroke-miterlimit="3.8637" d="M392.114,1551.444
		v-73.348c-10.53,0.551-21.063,1.064-31.601,1.545v71.803H392.114L392.114,1551.444z"/>
	<path id="store--1.04" fill="#D58F29" stroke="#FFFFFF" stroke-width="1.7789" stroke-miterlimit="3.8637" d="M360.514,1534.325
		v-54.684c-6.344,0.289-12.683,0.564-19.029,0.826h-21.908v17.035l-18.015,21.762c5.576,4.682,10.848,9.709,15.785,15.061H360.514
		L360.514,1534.325z"/>
	<path id="store--1.05" fill="#D58F29" stroke="#FFFFFF" stroke-width="1.7789" stroke-miterlimit="3.8637" d="M301.562,1519.265
		l18.015-21.762v-17.035h-47.734v18.734C282.424,1504.833,292.382,1511.56,301.562,1519.265L301.562,1519.265z"/>
	<path id="store--1.09" fill="#D58F29" stroke="#FFFFFF" stroke-width="1.7789" stroke-miterlimit="3.8637" d="M271.842,1499.202
		v-18.734h-27.044v7.184C254.128,1490.722,263.175,1494.585,271.842,1499.202L271.842,1499.202z"/>
	<path id="store--1.06" fill="#D58F29" stroke="#FFFFFF" stroke-width="1.7789" stroke-miterlimit="3.8637" d="M318.847,1416.663
		v-73.533h-69.499v76.24C272.303,1415.511,295.658,1414.604,318.847,1416.663L318.847,1416.663z"/>
	<path id="store--1.07" fill="#D58F29" stroke="#FFFFFF" stroke-width="1.7789" stroke-miterlimit="3.8637" d="M357.485,1422.909
		v-79.779h-38.639v73.533C331.857,1417.817,344.771,1419.903,357.485,1422.909L357.485,1422.909z"/>
	<path id="store--1.08" fill="#D58F29" stroke="#FFFFFF" stroke-width="1.7789" stroke-miterlimit="3.8637" d="M387.84,1431.96
		l19.162-48.705l-0.458-40.125h-49.059v79.779C367.768,1425.333,377.903,1428.358,387.84,1431.96L387.84,1431.96z"/>
	<path fill="#D58F29" stroke="#FFFFFF" stroke-width="1.7789" stroke-miterlimit="3.8637" d="M244.798,1487.651v-7.184h-24.493
		v1.076C228.608,1482.974,236.794,1485.019,244.798,1487.651L244.798,1487.651z"/>
	<path id="store--1.01" fill="#D58F29" stroke="#FFFFFF" stroke-width="1.7789" stroke-miterlimit="3.8637" d="M757.56,1424.005
		v59.287h39.933c2.751-57.26,4.962-114.549,6.628-171.854H500.326v112.566H757.56L757.56,1424.005z"/>
	<path id="store--1.02" fill="#D58F29" stroke="#FFFFFF" stroke-width="1.7789" stroke-miterlimit="3.8637" d="M584.166,1743.573
		v39.416h157.017l9.149-77.373l31.341,3.709c5.109-48.07,9.236-96.24,12.374-144.48l-35.487-1.904v-79.648v-59.287H500.326
		l-56.459,53.459v74.002h-51.753v-0.021h-60.889c20.617,29.062,31.688,63.818,31.682,99.451v130.359h54.589v-37.682H584.166
		L584.166,1743.573z"/>
	<polyline fill="none" stroke="#FFFFFF" stroke-width="1.7148" stroke-miterlimit="3.8637" points="296.761,1343.13 
		318.847,1343.13 357.485,1343.13 407.002,1343.13 429.265,1343.13 453.367,1343.13 453.367,1323.386 	"/>
	<polygon fill="#3F4040" points="476.266,1354.184 462.712,1336.639 470.177,1336.639 470.177,1327.504 482.355,1327.504 
		482.354,1336.639 489.819,1336.639 476.266,1354.184 	"/>
	<polygon fill="#FFFFFF" points="609.161,1549.608 606.012,1549.608 606.012,1555.614 609.161,1555.614 609.161,1549.608 	"/>
	<polygon fill="#FFFFFF" points="613.193,1562.157 600.846,1562.157 600.846,1566.272 616.679,1566.272 616.679,1559.89 
		613.193,1559.89 613.193,1562.157 	"/>
	<path fill="#FFFFFF" d="M605.34,1574.306c0-1.365-1.093-2.457-2.458-2.457c-1.344,0-2.457,1.092-2.457,2.457
		s1.113,2.457,2.457,2.457C604.247,1576.763,605.34,1575.671,605.34,1574.306L605.34,1574.306z"/>
	<path fill-rule="evenodd" clip-rule="evenodd" fill="#FFFFFF" d="M617.31,1584.884c0-4.703-4.432-6.719-8.547-6.719
		c-4.117,0-8.548,1.994-8.548,6.719c0,4.727,4.431,6.721,8.548,6.721C612.878,1591.604,617.31,1589.589,617.31,1584.884
		L617.31,1584.884z M613.677,1584.884c0,2.121-3.361,2.625-4.893,2.625c-1.533,0-4.936-0.504-4.936-2.625s3.402-2.625,4.936-2.625
		C610.315,1582.259,613.677,1582.763,613.677,1584.884L613.677,1584.884z"/>
	<path fill="#FFFFFF" d="M604.331,1600.099l2.289,2.457c1.47,1.617,2.793,2.562,5.062,2.562c3.444,0,5.628-2.793,5.628-6.111
		c0-3.736-2.457-6.047-6.09-6.174v4.537c0.23-0.043,0.462-0.064,0.672-0.064c1.07,0,1.932,0.609,1.932,1.723
		c0,1.092-1.05,1.807-2.058,1.807c-1.45,0-2.878-0.883-3.886-1.807l-7.034-6.469v12.727h3.485V1600.099L604.331,1600.099z"/>
	<polygon fill="#FFFFFF" points="672.257,1331.501 669.107,1331.501 669.107,1337.507 672.257,1337.507 672.257,1331.501 	"/>
	<polygon fill="#FFFFFF" points="676.29,1344.261 663.94,1344.261 663.94,1348.376 679.774,1348.376 679.774,1341.991 
		676.29,1341.991 676.29,1344.261 	"/>
	<path fill="#FFFFFF" d="M668.436,1356.618c0-1.365-1.092-2.457-2.457-2.457c-1.345,0-2.458,1.092-2.458,2.457
		s1.113,2.457,2.458,2.457C667.344,1359.075,668.436,1357.983,668.436,1356.618L668.436,1356.618z"/>
	<path fill-rule="evenodd" clip-rule="evenodd" fill="#FFFFFF" d="M680.405,1367.407c0-4.703-4.431-6.721-8.547-6.721
		c-4.115,0-8.547,1.996-8.547,6.721s4.432,6.721,8.547,6.721C675.975,1374.128,680.405,1372.11,680.405,1367.407L680.405,1367.407z
		 M676.772,1367.407c0,2.121-3.359,2.625-4.893,2.625s-4.936-0.504-4.936-2.625s3.402-2.625,4.936-2.625
		S676.772,1365.286,676.772,1367.407L676.772,1367.407z"/>
	<polygon fill="#FFFFFF" points="676.29,1380.249 663.94,1380.249 663.94,1384.364 679.774,1384.364 679.774,1377.981 
		676.29,1377.981 676.29,1380.249 	"/>
	<polygon fill="#FFFFFF" points="379.308,1351.444 376.158,1351.444 376.158,1357.452 379.308,1357.452 379.308,1351.444 	"/>
	<polygon fill="#FFFFFF" points="383.34,1363.995 370.992,1363.995 370.992,1368.11 386.825,1368.11 386.825,1361.726 
		383.34,1361.726 383.34,1363.995 	"/>
	<path fill="#FFFFFF" d="M375.486,1376.144c0-1.365-1.093-2.457-2.457-2.457c-1.345,0-2.458,1.092-2.458,2.457
		c0,1.363,1.113,2.457,2.458,2.457C374.394,1378.601,375.486,1377.507,375.486,1376.144L375.486,1376.144z"/>
	<path fill-rule="evenodd" clip-rule="evenodd" fill="#FFFFFF" d="M387.456,1386.722c0-4.703-4.431-6.721-8.547-6.721
		s-8.548,1.996-8.548,6.721s4.432,6.721,8.548,6.721S387.456,1391.427,387.456,1386.722L387.456,1386.722z M383.823,1386.722
		c0,2.121-3.36,2.625-4.894,2.625s-4.935-0.504-4.935-2.625s3.401-2.625,4.935-2.625S383.823,1384.601,383.823,1386.722
		L383.823,1386.722z"/>
	<path fill-rule="evenodd" clip-rule="evenodd" fill="#FFFFFF" d="M384.6,1400.907c0,0.967-0.798,1.742-1.784,1.742
		c-0.987,0-1.785-0.775-1.785-1.742s0.798-1.744,1.785-1.744C383.802,1399.163,384.6,1399.94,384.6,1400.907L384.6,1400.907z
		 M377.649,1400.907c0,1.051-0.883,1.891-1.975,1.891c-1.071,0-1.933-0.84-1.933-1.891s0.861-1.891,1.933-1.891
		C376.767,1399.017,377.649,1399.856,377.649,1400.907L377.649,1400.907z M387.456,1400.907c0-2.709-1.491-5.396-4.516-5.396
		c-1.68,0-3.107,1.049-3.591,2.498h-0.042c-0.63-1.891-2.079-3.15-4.157-3.15c-3.276,0-4.789,3.318-4.789,6.049
		s1.513,6.047,4.789,6.047c2.078,0,3.527-1.258,4.157-3.148h0.042c0.483,1.449,1.911,2.498,3.591,2.498
		C385.965,1406.304,387.456,1403.616,387.456,1400.907L387.456,1400.907z"/>
	<polygon fill="#FFFFFF" points="339.817,1481.491 336.742,1481.491 336.742,1487.354 339.817,1487.354 339.817,1481.491 	"/>
	<polygon fill="#FFFFFF" points="343.753,1492.921 331.699,1492.921 331.699,1496.938 347.156,1496.938 347.156,1490.708 
		343.753,1490.708 343.753,1492.921 	"/>
	<path fill="#FFFFFF" d="M336.086,1502.524c0-1.332-1.065-2.396-2.398-2.396c-1.312,0-2.398,1.064-2.398,2.396
		c0,1.334,1.087,2.4,2.398,2.4C335.021,1504.925,336.086,1503.858,336.086,1502.524L336.086,1502.524z"/>
	<path fill-rule="evenodd" clip-rule="evenodd" fill="#FFFFFF" d="M347.771,1512.032c0-4.592-4.325-6.561-8.344-6.561
		c-4.018,0-8.344,1.947-8.344,6.561c0,4.611,4.326,6.559,8.344,6.559C343.446,1518.591,347.771,1516.624,347.771,1512.032
		L347.771,1512.032z M344.225,1512.032c0,2.07-3.279,2.562-4.776,2.562c-1.496,0-4.817-0.492-4.817-2.562s3.321-2.562,4.817-2.562
		C340.945,1509.47,344.225,1509.962,344.225,1512.032L344.225,1512.032z"/>
	<path fill-rule="evenodd" clip-rule="evenodd" fill="#FFFFFF" d="M337.973,1530.204h9.184v-5.268l-9.696-5.965h-2.562v7.504h-3.198
		v3.729h3.198v1.867h3.075V1530.204L337.973,1530.204z M337.973,1526.476v-3.65l5.944,3.609v0.041H337.973L337.973,1526.476z"/>
	<polygon fill="#FFFFFF" points="284.827,1351.444 281.678,1351.444 281.678,1357.452 284.827,1357.452 284.827,1351.444 	"/>
	<polygon fill="#FFFFFF" points="288.859,1363.995 276.511,1363.995 276.511,1368.11 292.346,1368.11 292.346,1361.726 
		288.859,1361.726 288.859,1363.995 	"/>
	<path fill="#FFFFFF" d="M281.005,1376.144c0-1.365-1.092-2.457-2.457-2.457c-1.344,0-2.457,1.092-2.457,2.457
		c0,1.363,1.113,2.457,2.457,2.457C279.913,1378.601,281.005,1377.507,281.005,1376.144L281.005,1376.144z"/>
	<path fill-rule="evenodd" clip-rule="evenodd" fill="#FFFFFF" d="M292.976,1386.722c0-4.703-4.432-6.721-8.547-6.721
		c-4.116,0-8.548,1.996-8.548,6.721s4.432,6.721,8.548,6.721C288.544,1393.442,292.976,1391.427,292.976,1386.722L292.976,1386.722z
		 M289.342,1386.722c0,2.121-3.359,2.625-4.893,2.625s-4.935-0.504-4.935-2.625s3.401-2.625,4.935-2.625
		S289.342,1384.601,289.342,1386.722L289.342,1386.722z"/>
	<path fill-rule="evenodd" clip-rule="evenodd" fill="#FFFFFF" d="M292.346,1400.13l-4.452-3.402
		c-1.785-1.363-4.012-2.541-6.3-2.541c-1.639,0-3.297,0.861-4.348,2.121c-0.966,1.219-1.365,2.982-1.365,4.516
		c0,3.611,2.101,6.803,5.985,6.803c2.898,0,5.565-1.973,5.565-5.08c0-0.818-0.169-1.492-0.483-2.205l0.042-0.043l5.355,4.494
		V1400.13L292.346,1400.13z M279.115,1400.802c0-1.428,1.176-2.604,2.625-2.604c1.428,0,2.583,1.176,2.583,2.604
		c0,1.449-1.155,2.541-2.583,2.541C280.291,1403.343,279.115,1402.251,279.115,1400.802L279.115,1400.802z"/>
	<polygon fill="#FFFFFF" points="377.108,1481.491 374.033,1481.491 374.033,1487.354 377.108,1487.354 377.108,1481.491 	"/>
	<polygon fill="#FFFFFF" points="381.045,1492.921 368.99,1492.921 368.99,1496.938 384.447,1496.938 384.447,1490.708 
		381.045,1490.708 381.045,1492.921 	"/>
	<path fill="#FFFFFF" d="M373.378,1502.731c0-1.334-1.066-2.4-2.398-2.4c-1.312,0-2.399,1.066-2.399,2.4
		c0,1.332,1.087,2.398,2.399,2.398C372.312,1505.13,373.378,1504.063,373.378,1502.731L373.378,1502.731z"/>
	<path fill-rule="evenodd" clip-rule="evenodd" fill="#FFFFFF" d="M385.062,1512.237c0-4.592-4.325-6.561-8.344-6.561
		c-4.018,0-8.344,1.947-8.344,6.561s4.326,6.561,8.344,6.561C380.737,1518.798,385.062,1516.829,385.062,1512.237L385.062,1512.237z
		 M381.516,1512.237c0,2.07-3.279,2.562-4.776,2.562s-4.817-0.492-4.817-2.562s3.32-2.562,4.817-2.562
		S381.516,1510.167,381.516,1512.237L381.516,1512.237z"/>
	<path fill="#FFFFFF" d="M379.999,1523.462c1.005-0.021,1.783,0.613,1.783,1.639c0,0.902-0.615,1.578-1.558,1.578
		c-1.066,0-1.702-0.736-1.702-1.762v-0.41h-2.685c0.062,0.225,0.123,0.451,0.123,0.697c0,1.127-0.902,2.131-2.071,2.131
		c-1.25,0-2.07-0.922-2.07-2.152c0-1.271,0.964-2.152,2.193-2.152v-4.1c-1.353-0.041-2.952,0.84-3.895,1.764
		c-1.271,1.25-1.743,2.85-1.743,4.611c0,3.076,1.743,6.006,5.126,6.006c1.578,0,3.464-0.881,3.895-2.521
		c0.635,1.129,1.947,1.621,3.178,1.621c2.89,0,4.489-2.174,4.489-4.941c0-1.578-0.451-2.953-1.333-3.936
		c-0.881-0.984-2.111-1.641-3.73-1.805V1523.462L379.999,1523.462z"/>
	<polygon fill="#FFFFFF" points="266.487,1491.511 266.487,1494.585 272.351,1494.585 272.351,1491.511 266.487,1491.511 	"/>
	<polygon fill="#FFFFFF" points="277.918,1487.573 277.918,1499.628 281.936,1499.628 281.936,1484.171 275.703,1484.171 
		275.703,1487.573 277.918,1487.573 	"/>
	<path fill="#FFFFFF" d="M286.087,1495.241c-1.332,0-2.398,1.066-2.398,2.398c0,1.312,1.066,2.398,2.398,2.398
		c1.333,0,2.398-1.086,2.398-2.398C288.485,1496.308,287.42,1495.241,286.087,1495.241L286.087,1495.241z"/>
	<path fill-rule="evenodd" clip-rule="evenodd" fill="#FFFFFF" d="M295.594,1483.556c-4.592,0-6.561,4.326-6.561,8.344
		s1.948,8.344,6.561,8.344s6.56-4.326,6.56-8.344S300.186,1483.556,295.594,1483.556L295.594,1483.556z M295.594,1487.103
		c2.07,0,2.562,3.279,2.562,4.775c0,1.498-0.492,4.818-2.562,4.818s-2.562-3.32-2.562-4.818
		C293.031,1490.382,293.523,1487.103,295.594,1487.103L295.594,1487.103z"/>
	<path fill="#FFFFFF" d="M313.173,1487.573v-3.402h-8.036l-1.354,8.385c0.923-0.432,1.928-0.637,2.952-0.637
		c1.599,0,3.383,0.779,3.383,2.646c0,1.352-1.189,2.275-2.46,2.275c-1.6,0-3.116-0.719-4.306-1.785l-0.594,3.793
		c1.496,0.963,3.279,1.395,5.042,1.395c1.538,0,3.28-0.309,4.511-1.291c1.271-1.047,1.988-2.562,1.988-4.184
		c0-3.197-2.316-5.779-5.474-5.533l-1.271,0.102l0.268-1.764H313.173L313.173,1487.573z"/>
	<polygon fill="#FFFFFF" points="338.44,1351.444 335.291,1351.444 335.291,1357.452 338.44,1357.452 338.44,1351.444 	"/>
	<polygon fill="#FFFFFF" points="342.473,1363.995 330.125,1363.995 330.125,1368.11 345.959,1368.11 345.959,1361.726 
		342.473,1361.726 342.473,1363.995 	"/>
	<path fill="#FFFFFF" d="M334.619,1376.144c0-1.365-1.092-2.457-2.457-2.457c-1.344,0-2.457,1.092-2.457,2.457
		c0,1.363,1.113,2.457,2.457,2.457C333.527,1378.601,334.619,1377.507,334.619,1376.144L334.619,1376.144z"/>
	<path fill-rule="evenodd" clip-rule="evenodd" fill="#FFFFFF" d="M346.589,1386.722c0-4.703-4.431-6.721-8.547-6.721
		s-8.547,1.996-8.547,6.721s4.431,6.721,8.547,6.721S346.589,1391.427,346.589,1386.722L346.589,1386.722z M342.956,1386.722
		c0,2.121-3.36,2.625-4.893,2.625c-1.534,0-4.936-0.504-4.936-2.625s3.401-2.625,4.936-2.625
		C339.596,1384.097,342.956,1384.601,342.956,1386.722L342.956,1386.722z"/>
	<polygon fill="#FFFFFF" points="342.473,1401.81 330.125,1394.587 330.125,1399.103 345.959,1408.194 345.959,1395.196 
		342.473,1395.196 342.473,1401.81 	"/>
	<path fill="#FFFFFF" d="M582.354,832.55c2.973,0,5.383,2.41,5.383,5.383v55.691c0,2.971-2.41,5.381-5.383,5.381h-55.689
		c-2.973,0-5.383-2.41-5.383-5.381v-55.691c0-2.973,2.41-5.383,5.383-5.383H582.354L582.354,832.55z"/>
	<path fill="#4495D1" d="M580.716,834.505c2.799,0,5.066,2.268,5.066,5.065v52.416c0,2.797-2.268,5.064-5.066,5.064h-52.414
		c-2.797,0-5.065-2.268-5.065-5.064V839.57c0-2.797,2.269-5.065,5.065-5.065H580.716L580.716,834.505z"/>
	<path fill-rule="evenodd" clip-rule="evenodd" fill="#FFFFFF" d="M533.698,849.925v10.822h13.803v6.129
		c0,9.443,4.308,14.742,14.135,14.742c9.553,0,13.693-6.184,13.693-15.128v-16.564H533.698L533.698,849.925z M566.605,860.748v1.822
		c0,4.196-0.055,7.786-5.3,7.786c-5.08,0-5.08-3.866-5.08-7.786v-1.822H566.605L566.605,860.748z"/>
	<g>
		<path fill="#FFFFFF" d="M258.719,1505.196h-3.149v-6.006h3.149V1505.196z"/>
		<path fill="#FFFFFF" d="M262.75,1509.69h3.485v6.383h-15.831v-4.115h12.346V1509.69z"/>
		<path fill="#FFFFFF" d="M252.44,1526.784c-1.344,0-2.456-1.092-2.456-2.457s1.112-2.457,2.456-2.457
			c1.365,0,2.457,1.092,2.457,2.457S253.806,1526.784,252.44,1526.784z"/>
		<path fill="#FFFFFF" d="M258.319,1541.839c-4.115,0-8.545-1.994-8.545-6.719c0-4.724,4.43-6.719,8.545-6.719
			s8.546,2.016,8.546,6.719S262.435,1541.839,258.319,1541.839z M258.341,1532.496c-1.533,0-4.934,0.504-4.934,2.624
			c0,2.121,3.4,2.625,4.934,2.625s4.893-0.504,4.893-2.625C263.233,1533,259.874,1532.496,258.341,1532.496z"/>
		<path fill="#FFFFFF" d="M250.404,1545.642l5.333,4.514l0.042-0.041c-0.315-0.715-0.483-1.387-0.483-2.227
			c0-3.107,2.667-5.08,5.586-5.08c3.884,0,5.983,3.191,5.983,6.803c0,1.532-0.378,3.296-1.364,4.514
			c-1.029,1.281-2.709,2.121-4.367,2.121c-2.289,0-4.494-1.176-6.299-2.541l-4.431-3.381V1545.642z M261.007,1547.091
			c-1.448,0-2.604,1.092-2.604,2.54s1.155,2.624,2.604,2.624c1.449,0,2.604-1.176,2.604-2.624S262.456,1547.091,261.007,1547.091z"
			/>
	</g>
</g>
<g id="icons">
	<g id="lifts" display="none">
		<g id="lift-2" display="inline">
			<g>
				<circle fill="#FFFFFF" cx="432.544" cy="1329.261" r="25.5"/>
			</g>
			<g>
				<g>
					<path fill-rule="evenodd" clip-rule="evenodd" fill="#231F20" d="M432.544,1308.472c-11.481,0-20.79,9.309-20.79,20.789
						c0,11.482,9.309,20.791,20.79,20.791s20.79-9.309,20.79-20.791C453.334,1317.78,444.025,1308.472,432.544,1308.472z
						 M432.544,1347.452c-10.029,0-18.191-8.16-18.191-18.191c0-9.892,7.944-17.951,17.784-18.171v6.349h-5.708
						c-0.899,0-1.63,0.73-1.63,1.631v19.568c0,0.9,0.73,1.631,1.63,1.631h12.23c0.9,0,1.63-1.547,1.63-2.447v-18.752
						c0-0.9-0.729-1.631-1.63-1.631h-5.708v-6.349c9.84,0.22,17.784,8.279,17.784,18.171
						C450.735,1339.292,442.573,1347.452,432.544,1347.452z M422.324,1328.009l-1.153,1.154c-0.316,0.316-0.578,0.209-0.578-0.24
						v-4.061c0-0.447-0.308-0.816-0.687-0.816c-0.377,0-0.686,0.367-0.686,0.816v4.062c0,0.449-0.259,0.557-0.575,0.24l-1.156-1.156
						c-0.316-0.316-0.795-0.357-1.062-0.09s-0.226,0.746,0.091,1.062l2.812,2.812c0.317,0.316,0.836,0.316,1.153,0l2.812-2.812
						c0.317-0.316,0.358-0.795,0.091-1.062S422.641,1327.692,422.324,1328.009z M449.001,1327.077l-2.831-2.865
						c-0.319-0.322-0.842-0.322-1.161,0l-2.832,2.865c-0.319,0.324-0.36,0.811-0.091,1.084c0.269,0.271,0.75,0.23,1.069-0.094
						l1.163-1.176c0.319-0.324,0.579-0.215,0.579,0.242v4.143c0,0.457,0.312,0.83,0.691,0.83c0.382,0,0.691-0.375,0.691-0.83v-4.141
						c0-0.457,0.263-0.566,0.581-0.242l1.162,1.174c0.318,0.324,0.8,0.365,1.069,0.094
						C449.363,1327.888,449.32,1327.401,449.001,1327.077z"/>
				</g>
			</g>
		</g>
		<g id="lift-1" display="inline">
			<g>
				<circle fill="#FFFFFF" cx="432.544" cy="453.93" r="25.5"/>
			</g>
			<g>
				<g>
					<path fill-rule="evenodd" clip-rule="evenodd" fill="#231F20" d="M432.544,433.139c-11.48,0-20.789,9.309-20.789,20.791
						s9.309,20.791,20.789,20.791c11.482,0,20.791-9.309,20.791-20.791S444.026,433.139,432.544,433.139z M432.544,472.121
						c-10.029,0-18.191-8.162-18.191-18.191c0-9.893,7.944-17.952,17.785-18.171v6.349h-5.709c-0.898,0-1.629,0.73-1.629,1.631
						v19.567c0,0.9,0.73,1.631,1.629,1.631h12.23c0.902,0,1.631-1.545,1.631-2.446v-18.752c0-0.9-0.729-1.631-1.631-1.631h-5.707
						v-6.349c9.842,0.22,17.783,8.279,17.783,18.171C450.735,463.959,442.575,472.121,432.544,472.121z M422.325,452.678
						l-1.154,1.153c-0.316,0.317-0.578,0.21-0.578-0.239v-4.062c0-0.447-0.307-0.815-0.686-0.815c-0.377,0-0.686,0.367-0.686,0.815
						v4.064c0,0.449-0.26,0.556-0.576,0.239l-1.156-1.154c-0.316-0.317-0.795-0.358-1.062-0.091
						c-0.266,0.268-0.225,0.745,0.092,1.062l2.812,2.812c0.316,0.317,0.836,0.317,1.152,0l2.812-2.812
						c0.316-0.317,0.357-0.794,0.09-1.062S422.642,452.361,422.325,452.678z M449.003,451.746l-2.832-2.865
						c-0.32-0.323-0.842-0.323-1.16,0l-2.834,2.865c-0.318,0.323-0.359,0.811-0.09,1.083c0.268,0.272,0.75,0.231,1.068-0.092
						l1.164-1.177c0.318-0.323,0.578-0.214,0.578,0.244v4.142c0,0.457,0.312,0.831,0.691,0.831c0.383,0,0.691-0.375,0.691-0.831
						v-4.14c0-0.458,0.264-0.567,0.582-0.244l1.162,1.175c0.318,0.323,0.799,0.364,1.068,0.092
						C449.364,452.556,449.321,452.069,449.003,451.746z"/>
				</g>
			</g>
		</g>
	</g>
	<g id="escalators" display="none">
		<g id="escalator-updown-9" display="inline">
			<g>
				<circle fill="#FFFFFF" cx="268.863" cy="413.346" r="25.5"/>
			</g>
			<g>
				<g>
					<path fill="#231F20" d="M269.202,392.556c-11.482,0-20.79,9.309-20.79,20.79s9.308,20.79,20.79,20.79
						c11.48,0,20.789-9.309,20.789-20.79S280.683,392.556,269.202,392.556z M269.202,431.538c-10.029,0-18.191-8.162-18.191-18.191
						s8.162-18.191,18.191-18.191s18.191,8.162,18.191,18.191S279.231,431.538,269.202,431.538z M265.974,405.191
						c0.76,0,1.377-0.639,1.377-1.426s-0.617-1.426-1.377-1.426s-1.375,0.639-1.375,1.426S265.214,405.191,265.974,405.191z
						 M279.536,405.562l-5.135,0.083l-12.598,13.059h-2.17c-1.695,0.032-3.061,1.467-3.061,3.231c0,1.757,1.355,3.195,3.117,3.23
						l5.186,0.004l12.682-13.146l2.029,0.001c1.693-0.033,3.059-1.468,3.059-3.231C282.646,407.039,281.294,405.601,279.536,405.562
						z M277.464,411.332l-12.809,13.276h-1.391v-2.469h2.363v-2.451h2.365v-2.451h2.365v-2.452h2.365v-2.452h2.363v-2.45h2.377
						V411.332z M268.962,408.532l-1.344,1.386v-2.406c0-2.273-3.289-2.273-3.289,0v7.253l6.166-6.383
						C270.026,408.047,269.38,408.098,268.962,408.532z"/>
				</g>
			</g>
		</g>
		<g id="escalator-updown-2" display="inline">
			<g>
				<circle fill="#FFFFFF" cx="219.529" cy="1413.286" r="25.5"/>
			</g>
			<g>
				<g>
					<path fill="#231F20" d="M219.867,1392.495c-11.48,0-20.789,9.309-20.789,20.791c0,11.48,9.309,20.789,20.789,20.789
						c11.482,0,20.791-9.309,20.791-20.789C240.658,1401.804,231.35,1392.495,219.867,1392.495z M219.867,1431.478
						c-10.029,0-18.191-8.162-18.191-18.191s8.162-18.191,18.191-18.191s18.191,8.162,18.191,18.191
						S229.896,1431.478,219.867,1431.478z M230.201,1405.501l-5.133,0.084l-12.598,13.059h-2.172
						c-1.693,0.031-3.059,1.467-3.059,3.23c0,1.758,1.355,3.195,3.117,3.23l5.186,0.004l12.68-13.145h2.029
						c1.695-0.033,3.059-1.467,3.059-3.23C233.311,1406.978,231.961,1405.54,230.201,1405.501z M228.129,1411.271l-12.807,13.277
						h-1.393v-2.469h2.365v-2.451h2.365v-2.451h2.363v-2.453h2.365v-2.451h2.365v-2.451h2.375V1411.271z M216.641,1405.13
						c0.76,0,1.375-0.639,1.375-1.426s-0.615-1.426-1.375-1.426c-0.762,0-1.377,0.639-1.377,1.426S215.879,1405.13,216.641,1405.13z
						 M219.629,1408.472l-1.344,1.385v-2.406c0-2.273-3.289-2.273-3.289,0v7.254l6.164-6.383
						C220.693,1407.987,220.047,1408.038,219.629,1408.472z"/>
				</g>
			</g>
		</g>
		<g id="escalator-wheel" display="inline">
			<g>
				<circle fill="#FFFFFF" cx="431.818" cy="1759.071" r="25.5"/>
			</g>
			<g>
				<g>
					<path fill="#231F20" d="M432.158,1738.28c-11.481,0-20.79,9.309-20.79,20.791c0,11.48,9.309,20.789,20.79,20.789
						c11.48,0,20.79-9.309,20.79-20.789C452.948,1747.589,443.639,1738.28,432.158,1738.28z M432.158,1777.263
						c-10.029,0-18.191-8.162-18.191-18.191s8.162-18.191,18.191-18.191s18.191,8.162,18.191,18.191
						S442.188,1777.263,432.158,1777.263z M442.97,1756.769l-21.208,4.527c-4.844,0.67-3.578,8.064,1.25,7.059l21.473-4.586
						C449.024,1762.761,447.582,1755.819,442.97,1756.769z M443.954,1763.228l-20.565,4.391c-0.344,0.074-0.674-0.109-0.736-0.41
						c-0.063-0.299,0.163-0.602,0.508-0.674l20.563-4.391c0.345-0.074,0.675,0.109,0.737,0.41
						C444.524,1762.853,444.297,1763.155,443.954,1763.228z M425.848,1751.058c0.821,0,1.488-0.67,1.488-1.496
						s-0.667-1.498-1.488-1.498c-0.824,0-1.49,0.672-1.49,1.498S425.023,1751.058,425.848,1751.058z M427.628,1758.819v-1.471
						l2.627-2.779c0.098,0.062,0.248,0.207,0.309,0.336l1.669,3.123l0.494-0.105l-1.729-3.232c-0.081-0.172-0.204-0.311-0.296-0.398
						c-0.526-0.525-1.291-0.6-1.836-0.123l-1.238,1.35v-2.027c0-2.385-3.562-2.385-3.562,0v6.281l3.553-0.76
						C427.624,1758.95,427.628,1758.884,427.628,1758.819z M433.279,1757.806l0.489-0.105l-0.27-0.553l0.838-0.18l0.122,0.584
						l0.475-0.102l-0.124-0.584l1.238-0.264l0.124,0.584l0.474-0.102l-0.124-0.584l1.238-0.264l0.123,0.584l0.476-0.102
						l-0.125-0.584l0.838-0.18l-0.021,0.617l0.487-0.105l0.126-3.527c0.007-0.174-0.122-0.285-0.292-0.248l-7.469,1.596
						c-0.169,0.035-0.243,0.188-0.167,0.344L433.279,1757.806z M439.088,1755.456l-0.955,0.203l-0.188-0.889l1.177-0.25
						L439.088,1755.456z M439.168,1753.233l-0.028,0.785l-1.296,0.277l-0.157-0.744L439.168,1753.233z M437.658,1755.761
						l-1.236,0.264l-0.188-0.889l1.235-0.262L437.658,1755.761z M437.212,1753.651l0.158,0.744l-1.237,0.266l-0.158-0.744
						L437.212,1753.651z M435.946,1756.126l-1.236,0.264l-0.188-0.887l1.236-0.264L435.946,1756.126z M435.501,1754.017l0.156,0.746
						l-1.236,0.264l-0.157-0.744L435.501,1754.017z M434.235,1756.491l-0.956,0.205l-0.409-0.842l1.177-0.25L434.235,1756.491z
						 M433.788,1754.382l0.158,0.746l-1.296,0.277l-0.343-0.707L433.788,1754.382z"/>
				</g>
			</g>
		</g>
	</g>
</g>
<g id="paths" display="none">
	
		<line display="inline" fill="none" stroke="#ED1C24" stroke-linecap="round" stroke-linejoin="round" stroke-miterlimit="3.8637" x1="278.28" y1="1449.689" x2="256.825" y2="1449.236"/>
	
		<line display="inline" fill="none" stroke="#ED1C24" stroke-linecap="round" stroke-linejoin="round" stroke-miterlimit="3.8637" x1="299.16" y1="1450.131" x2="278.28" y2="1449.689"/>
	
		<line display="inline" fill="none" stroke="#ED1C24" stroke-linecap="round" stroke-linejoin="round" stroke-miterlimit="3.8637" x1="331.895" y1="1450.822" x2="299.16" y2="1450.131"/>
	
		<line display="inline" fill="none" stroke="#ED1C24" stroke-linecap="round" stroke-linejoin="round" stroke-miterlimit="3.8637" x1="339.142" y1="1450.976" x2="331.895" y2="1450.822"/>
	
		<line display="inline" fill="none" stroke="#ED1C24" stroke-linecap="round" stroke-linejoin="round" stroke-miterlimit="3.8637" x1="367.538" y1="1451.575" x2="339.142" y2="1450.976"/>
	
		<line display="inline" fill="none" stroke="#ED1C24" stroke-linecap="round" stroke-linejoin="round" stroke-miterlimit="3.8637" x1="381.707" y1="1451.875" x2="367.538" y2="1451.575"/>
	
		<line display="inline" fill="none" stroke="#ED1C24" stroke-linecap="round" stroke-linejoin="round" stroke-miterlimit="3.8637" x1="413.256" y1="1452.541" x2="381.707" y2="1451.875"/>
	
		<line display="inline" fill="none" stroke="#ED1C24" stroke-linecap="round" stroke-linejoin="round" stroke-miterlimit="3.8637" x1="459.276" y1="1424.461" x2="413.256" y2="1452.541"/>
	
		<polyline display="inline" fill="none" stroke="#ED1C24" stroke-linecap="round" stroke-linejoin="round" stroke-miterlimit="3.8637" points="
		478.252,1381.553 478.252,1412.883 459.276,1424.461 	"/>
	
		<polyline display="inline" fill="none" stroke="#ED1C24" stroke-linecap="round" stroke-linejoin="round" stroke-miterlimit="3.8637" points="
		432.544,1344.124 432.544,1364.918 478.252,1364.918 	"/>
	
		<line id="entrance--1.01" display="inline" fill="none" stroke="#ED1C24" stroke-linecap="round" stroke-linejoin="round" stroke-miterlimit="3.8637" x1="478.252" y1="1381.553" x2="514.055" y2="1381.553"/>
	
		<line id="entrance--1.02" display="inline" fill="none" stroke="#ED1C24" stroke-linecap="round" stroke-linejoin="round" stroke-miterlimit="3.8637" x1="482.054" y1="1459.15" x2="459.276" y2="1424.461"/>
	
		<line id="entrance--1.03" display="inline" fill="none" stroke="#ED1C24" stroke-linecap="round" stroke-linejoin="round" stroke-miterlimit="3.8637" x1="381.707" y1="1451.875" x2="380.132" y2="1500.742"/>
	
		<line id="entrance--1.08" display="inline" fill="none" stroke="#ED1C24" stroke-linecap="round" stroke-linejoin="round" stroke-miterlimit="3.8637" x1="367.538" y1="1451.575" x2="370.774" y2="1417.289"/>
	
		<line id="entrance--1.07" display="inline" fill="none" stroke="#ED1C24" stroke-linecap="round" stroke-linejoin="round" stroke-miterlimit="3.8637" x1="339.142" y1="1450.976" x2="337.69" y2="1409.746"/>
	
		<line id="entrance--1.04" display="inline" fill="none" stroke="#ED1C24" stroke-linecap="round" stroke-linejoin="round" stroke-miterlimit="3.8637" x1="331.895" y1="1450.822" x2="329.532" y2="1494.6"/>
	
		<line id="entrance--1.05" display="inline" fill="none" stroke="#ED1C24" stroke-linecap="round" stroke-linejoin="round" stroke-miterlimit="3.8637" x1="299.16" y1="1450.131" x2="295.375" y2="1488.906"/>
	
		<line id="entrance--1.06" display="inline" fill="none" stroke="#ED1C24" stroke-linecap="round" stroke-linejoin="round" stroke-miterlimit="3.8637" x1="278.28" y1="1449.689" x2="271.818" y2="1405.171"/>
	
		<line id="entrance--1.09" display="inline" fill="none" stroke="#ED1C24" stroke-linecap="round" stroke-linejoin="round" stroke-miterlimit="3.8637" x1="256.825" y1="1449.236" x2="254.841" y2="1486.611"/>
	
		<line id="entrance-park" display="inline" fill="none" stroke="#ED1C24" stroke-linecap="round" stroke-linejoin="round" stroke-miterlimit="3.8637" x1="478.252" y1="1381.553" x2="478.252" y2="1315.646"/>
</g>
</svg>
