<?xml version="1.0" encoding="utf-8"?>
<!-- Generator: Adobe Illustrator 16.0.0, SVG Export Plug-In . SVG Version: 6.00 Build 0)  -->
<!DOCTYPE svg PUBLIC "-//W3C//DTD SVG 1.1//EN" "http://www.w3.org/Graphics/SVG/1.1/DTD/svg11.dtd">
<svg version="1.1" xmlns="http://www.w3.org/2000/svg" xmlns:xlink="http://www.w3.org/1999/xlink" x="0px" y="0px"
	 width="731.289px" height="2330.391px" viewBox="0 0 731.289 2330.391" enable-background="new 0 0 731.289 2330.391"
	 xml:space="preserve">
<g id="general_map">
	<rect x="-0.001" fill="#515251" width="731.291" height="2330.391"/>
	<rect x="14.172" y="14.174" fill="#FDC689" width="702.944" height="2302.043"/>
	<path id="store-A2.01" fill="#F7941E" stroke="#FFFFFF" stroke-width="3" d="M551.45,615.524l0.104,1044.587l-192.607-36.199
		c0,0,22.891-377.687,22.891-490.875c0-129.865-22.889-481.335-22.889-481.335L551.45,615.524z"/>
	<polygon fill="#D2232A" stroke="#FFFFFF" stroke-width="3" points="333.864,1915.061 304.11,2061.898 551.555,2119.977 
		551.555,1956.801 	"/>
</g>
<g id="numbers">
	<g>
		<path d="M445.978,1140.269c-0.146,0.087-0.354,0.13-0.624,0.13h-2.291c-0.271,0-0.431-0.048-0.479-0.145
			c-0.048-0.097-0.121-0.299-0.218-0.609l-1.246-4.06h-7.222l-1.218,4.06c-0.098,0.31-0.184,0.512-0.262,0.609
			c-0.077,0.097-0.231,0.145-0.463,0.145h-2.089c-0.174,0-0.285-0.048-0.333-0.145c-0.049-0.097-0.006-0.367,0.131-0.812
			l5.887-19.343c0.096-0.329,0.217-0.566,0.362-0.711c0.146-0.145,0.382-0.217,0.71-0.217h2.379c0.328,0,0.561,0.073,0.695,0.217
			c0.135,0.145,0.262,0.382,0.377,0.711l5.887,19.343C446.116,1139.906,446.122,1140.182,445.978,1140.269z M437.523,1123.318
			l-2.843,9.686h5.656L437.523,1123.318z"/>
		<path d="M468.553,1140.399h-12.644c-0.137,0-0.267-0.048-0.393-0.145c-0.125-0.097-0.188-0.28-0.188-0.551v-1.392
			c0-1.16,0.178-2.214,0.536-3.161c0.357-0.947,0.812-1.798,1.362-2.552c0.552-0.754,1.16-1.407,1.828-1.958
			c0.666-0.551,1.309-1.01,1.928-1.378c0.58-0.348,1.155-0.705,1.726-1.073c0.57-0.367,1.073-0.749,1.509-1.146
			c0.435-0.396,0.787-0.797,1.059-1.204c0.27-0.406,0.405-0.821,0.405-1.247c0-0.986-0.329-1.73-0.985-2.233
			c-0.658-0.502-1.615-0.754-2.871-0.754c-0.6,0-1.142,0.053-1.625,0.16c-0.482,0.106-0.913,0.242-1.29,0.406
			c-0.377,0.165-0.71,0.333-1.001,0.507c-0.289,0.174-0.541,0.319-0.754,0.435c-0.115,0.078-0.251-0.009-0.406-0.261
			c-0.154-0.251-0.289-0.551-0.405-0.899c-0.116-0.348-0.188-0.686-0.218-1.015c-0.029-0.329,0.024-0.532,0.16-0.609
			c0.231-0.135,0.512-0.285,0.84-0.45c0.329-0.164,0.735-0.323,1.219-0.479c0.482-0.154,1.059-0.285,1.726-0.392
			c0.667-0.106,1.454-0.159,2.363-0.159c2.03,0,3.64,0.435,4.829,1.305c1.188,0.87,1.783,2.195,1.783,3.973
			c0,0.89-0.189,1.692-0.566,2.407s-0.859,1.368-1.449,1.958s-1.257,1.126-2.001,1.609c-0.745,0.483-1.475,0.938-2.189,1.363
			c-0.464,0.29-0.919,0.604-1.363,0.943s-0.837,0.725-1.175,1.16s-0.619,0.923-0.841,1.464c-0.222,0.542-0.343,1.151-0.362,1.827
			c0,0.271,0.062,0.445,0.188,0.522c0.126,0.078,0.343,0.116,0.652,0.116h8.207c0.329,0,0.561,0.034,0.696,0.102
			c0.135,0.068,0.203,0.208,0.203,0.42v1.885C469.046,1140.235,468.882,1140.399,468.553,1140.399z"/>
		<path d="M476.483,1140.065c-0.048,0.223-0.256,0.333-0.623,0.333h-2.232c-0.368,0-0.615-0.091-0.74-0.275
			c-0.126-0.184-0.188-0.401-0.188-0.653v-1.566c0-0.193,0.048-0.372,0.146-0.536c0.096-0.164,0.241-0.247,0.435-0.247h2.378
			c0.426,0,0.682,0.058,0.769,0.174s0.13,0.28,0.13,0.493v1.566C476.556,1139.606,476.532,1139.843,476.483,1140.065z"/>
		<path d="M494.188,1137.412c-0.406,0.928-0.942,1.643-1.609,2.146s-1.426,0.832-2.277,0.986c-0.851,0.154-1.711,0.232-2.58,0.232
			c-0.87,0-1.75-0.083-2.639-0.247c-0.891-0.164-1.697-0.483-2.422-0.957c-0.725-0.473-1.315-1.131-1.77-1.972
			c-0.454-0.841-0.682-1.929-0.682-3.263v-8.294c0-1.431,0.189-2.61,0.566-3.538c0.377-0.928,0.898-1.663,1.565-2.204
			c0.667-0.541,1.46-0.918,2.378-1.131c0.918-0.212,1.918-0.319,3.002-0.319c0.928,0,1.816,0.092,2.668,0.275
			c0.85,0.184,1.6,0.532,2.247,1.044c0.647,0.513,1.169,1.213,1.565,2.103c0.396,0.89,0.596,2.03,0.596,3.422v8.004
			C494.798,1135.247,494.595,1136.484,494.188,1137.412z M491.376,1126.45c0-1.701-0.272-2.914-0.816-3.639
			c-0.543-0.725-1.484-1.087-2.822-1.087c-0.854,0-1.549,0.097-2.082,0.29c-0.534,0.194-0.946,0.493-1.237,0.899
			c-0.291,0.406-0.485,0.918-0.582,1.537c-0.097,0.619-0.146,1.344-0.146,2.175v7.54c0,0.677,0.102,1.257,0.305,1.74
			c0.205,0.483,0.48,0.875,0.83,1.175s0.768,0.522,1.252,0.667c0.485,0.145,1.01,0.217,1.572,0.217c0.602,0,1.13-0.062,1.586-0.188
			c0.456-0.125,0.845-0.348,1.165-0.667c0.319-0.319,0.562-0.758,0.728-1.319c0.165-0.561,0.248-1.276,0.248-2.146V1126.45z"/>
		<path d="M504.962,1140.225c-0.066,0.116-0.234,0.174-0.503,0.174h-2.214c-0.27,0-0.447-0.077-0.533-0.232
			s-0.129-0.406-0.129-0.754v-15.921c0-0.212-0.034-0.367-0.102-0.464c-0.068-0.096-0.217-0.145-0.449-0.145h-2.088
			c-0.271,0-0.484-0.184-0.639-0.551v-1.247c0-0.232,0.068-0.406,0.203-0.522c0.135-0.116,0.396-0.232,0.783-0.348l1.885-0.754
			c0.366-0.097,0.617-0.169,0.751-0.217s0.317-0.073,0.547-0.073h2.013c0.307,0,0.479,0.078,0.518,0.232
			c0.039,0.155,0.059,0.416,0.059,0.783v19.343C505.063,1139.877,505.029,1140.109,504.962,1140.225z"/>
	</g>
	<g>
		<path d="M331.874,2132.693c-0.057,0.218-0.133,0.448-0.229,0.689c-0.096,0.242-0.2,0.455-0.312,0.639
			c-0.111,0.185-0.199,0.269-0.264,0.252c-0.145-0.062-0.309-0.135-0.492-0.215c-0.184-0.08-0.4-0.156-0.648-0.229
			c-0.249-0.072-0.54-0.136-0.876-0.191c-0.336-0.057-0.72-0.084-1.152-0.084c-1.616,0-2.768,0.336-3.456,1.008
			s-1.032,1.688-1.032,3.047v6.24c0,0.656,0.116,1.2,0.348,1.633c0.232,0.432,0.532,0.779,0.9,1.043
			c0.368,0.265,0.788,0.453,1.26,0.564c0.472,0.112,0.948,0.168,1.428,0.168c0.543,0,1.02-0.035,1.428-0.107
			c0.408-0.072,0.768-0.156,1.08-0.252c0.312-0.097,0.576-0.192,0.792-0.289c0.216-0.096,0.396-0.168,0.54-0.215
			c0.08-0.016,0.164,0.076,0.252,0.275c0.088,0.2,0.164,0.432,0.228,0.695c0.064,0.265,0.104,0.517,0.121,0.757
			c0.016,0.239,0,0.384-0.049,0.433c-0.32,0.207-0.896,0.407-1.728,0.6c-0.833,0.191-1.792,0.287-2.88,0.287
			c-2.144,0-3.788-0.471-4.932-1.416c-1.145-0.943-1.716-2.247-1.716-3.912v-6.743c0-0.832,0.104-1.616,0.312-2.353
			c0.208-0.735,0.58-1.382,1.116-1.938c0.536-0.556,1.268-0.997,2.196-1.319c0.928-0.324,2.112-0.486,3.552-0.486
			c0.688,0,1.275,0.041,1.764,0.122s0.9,0.174,1.236,0.278c0.336,0.105,0.596,0.219,0.78,0.34c0.184,0.121,0.324,0.215,0.42,0.279
			C331.925,2132.342,331.929,2132.475,331.874,2132.693z"/>
		<path d="M345.025,2143.189c-0.104,0.168-0.38,0.252-0.828,0.252h-7.128c0,1.393,0.32,2.393,0.96,3
			c0.64,0.609,1.528,0.912,2.664,0.912c0.991,0,1.776-0.067,2.353-0.203c0.576-0.137,0.975-0.244,1.199-0.324
			s0.393-0.096,0.504-0.049c0.112,0.049,0.168,0.137,0.168,0.265v1.2c0,0.225-0.052,0.376-0.156,0.455
			c-0.104,0.081-0.315,0.168-0.635,0.265c-0.081,0.032-0.244,0.072-0.492,0.12s-0.541,0.092-0.877,0.132s-0.695,0.075-1.08,0.108
			c-0.383,0.031-0.752,0.048-1.104,0.048c-1.04,0-1.947-0.12-2.724-0.36s-1.425-0.624-1.944-1.152
			c-0.52-0.527-0.912-1.211-1.176-2.051c-0.264-0.841-0.396-1.853-0.396-3.037c0-2.319,0.469-4.051,1.404-5.195
			s2.324-1.717,4.164-1.717c1.68,0,2.98,0.441,3.9,1.32c0.92,0.881,1.379,2.129,1.379,3.744v1.488
			C345.181,2142.762,345.13,2143.021,345.025,2143.189z M341.929,2138.486c-0.392-0.616-1.084-0.924-2.075-0.924
			c-0.479,0-0.892,0.096-1.236,0.287c-0.345,0.192-0.624,0.448-0.84,0.769c-0.216,0.319-0.376,0.696-0.479,1.128
			c-0.104,0.432-0.156,0.888-0.156,1.367c0,0.177,0.008,0.301,0.023,0.373s0.112,0.107,0.289,0.107h4.848
			c0.127,0,0.203-0.031,0.228-0.096s0.036-0.184,0.036-0.359C342.533,2139.986,342.321,2139.102,341.929,2138.486z"/>
		<path d="M358.214,2148.854c-0.064,0.168-0.209,0.252-0.433,0.252h-1.56c-0.416,0-0.625-0.287-0.625-0.863v-7.633
			c0-0.319-0.039-0.623-0.119-0.912c-0.08-0.287-0.209-0.539-0.385-0.756c-0.176-0.215-0.408-0.387-0.695-0.516
			c-0.288-0.128-0.641-0.191-1.057-0.191c-0.464,0-0.863,0.088-1.199,0.264s-0.612,0.396-0.828,0.66
			c-0.217,0.264-0.377,0.561-0.48,0.888c-0.104,0.328-0.156,0.636-0.156,0.924v7.224c0,0.32-0.023,0.553-0.072,0.697
			c-0.047,0.144-0.184,0.215-0.407,0.215h-1.513c-0.271,0-0.451-0.067-0.539-0.203c-0.088-0.137-0.133-0.364-0.133-0.685v-11.28
			c0-0.24,0.037-0.424,0.108-0.552c0.072-0.128,0.228-0.192,0.468-0.192h1.536c0.208,0,0.356,0.113,0.444,0.336
			c0.088,0.225,0.132,0.617,0.132,1.177c0.416-0.56,0.928-1,1.536-1.32c0.607-0.319,1.367-0.479,2.279-0.479
			c0.513,0,0.996,0.072,1.453,0.216c0.455,0.144,0.859,0.376,1.211,0.696s0.629,0.744,0.828,1.271
			c0.2,0.528,0.301,1.176,0.301,1.944v7.968C358.31,2148.402,358.276,2148.686,358.214,2148.854z"/>
		<path d="M367.885,2138.258c-0.063,0.08-0.224,0.12-0.479,0.12h-2.209v7.776c0,0.4,0.093,0.712,0.277,0.936
			c0.184,0.225,0.436,0.336,0.756,0.336c0.239,0,0.439-0.008,0.6-0.023s0.359-0.057,0.6-0.121c0.064-0.016,0.124,0.064,0.18,0.24
			c0.057,0.177,0.097,0.377,0.121,0.601c0.023,0.224,0.031,0.437,0.023,0.636c-0.008,0.2-0.036,0.309-0.084,0.324
			c-0.191,0.08-0.504,0.147-0.936,0.204c-0.433,0.056-0.873,0.084-1.32,0.084c-0.572,0-1.049-0.089-1.43-0.265
			s-0.686-0.411-0.916-0.707c-0.23-0.297-0.393-0.633-0.488-1.008c-0.095-0.377-0.143-0.765-0.143-1.164v-7.873h-1.199
			c-0.16,0-0.264-0.043-0.312-0.131c-0.048-0.088-0.072-0.213-0.072-0.373v-0.912c0-0.191,0.032-0.319,0.097-0.383
			c0.063-0.064,0.208-0.097,0.432-0.097h1.152v-2.399c0-0.225,0.063-0.373,0.19-0.445c0.127-0.071,0.285-0.123,0.476-0.155
			l1.284-0.24c0.253-0.048,0.424-0.02,0.511,0.084c0.087,0.104,0.131,0.276,0.131,0.517v2.64h2.304c0.225,0,0.372,0.048,0.444,0.144
			c0.071,0.096,0.108,0.225,0.108,0.385v0.912C367.981,2138.059,367.948,2138.178,367.885,2138.258z"/>
		<path d="M377.221,2137.802c-0.048,0.24-0.168,0.36-0.36,0.36c-0.32,0-0.656,0.04-1.008,0.119
			c-0.352,0.081-0.664,0.209-0.936,0.385c-0.561,0.32-1.004,0.688-1.332,1.104s-0.492,0.816-0.492,1.2v7.224
			c0,0.32-0.023,0.553-0.072,0.697c-0.048,0.144-0.184,0.215-0.408,0.215h-1.512c-0.271,0-0.452-0.067-0.54-0.203
			c-0.088-0.137-0.132-0.364-0.132-0.685v-11.28c0-0.24,0.036-0.424,0.107-0.552c0.072-0.128,0.229-0.192,0.469-0.192h1.535
			c0.16,0,0.297,0.045,0.408,0.133c0.112,0.088,0.168,0.252,0.168,0.492v1.224c0.48-0.688,1.049-1.196,1.705-1.524
			c0.655-0.327,1.352-0.492,2.088-0.492c0.096,0,0.188,0.013,0.275,0.037c0.088,0.023,0.124,0.1,0.108,0.228L377.221,2137.802z"/>
		<path d="M389.641,2143.189c-0.104,0.168-0.38,0.252-0.828,0.252h-7.128c0,1.393,0.32,2.393,0.96,3
			c0.64,0.609,1.528,0.912,2.664,0.912c0.991,0,1.776-0.067,2.353-0.203c0.576-0.137,0.975-0.244,1.199-0.324
			s0.393-0.096,0.504-0.049c0.112,0.049,0.168,0.137,0.168,0.265v1.2c0,0.225-0.052,0.376-0.156,0.455
			c-0.104,0.081-0.315,0.168-0.635,0.265c-0.081,0.032-0.244,0.072-0.492,0.12s-0.541,0.092-0.877,0.132s-0.695,0.075-1.08,0.108
			c-0.383,0.031-0.752,0.048-1.104,0.048c-1.04,0-1.947-0.12-2.724-0.36s-1.425-0.624-1.944-1.152
			c-0.52-0.527-0.912-1.211-1.176-2.051c-0.264-0.841-0.396-1.853-0.396-3.037c0-2.319,0.469-4.051,1.404-5.195
			s2.324-1.717,4.164-1.717c1.68,0,2.98,0.441,3.9,1.32c0.92,0.881,1.379,2.129,1.379,3.744v1.488
			C389.796,2142.762,389.745,2143.021,389.641,2143.189z M386.544,2138.486c-0.392-0.616-1.084-0.924-2.075-0.924
			c-0.479,0-0.892,0.096-1.236,0.287c-0.345,0.192-0.624,0.448-0.84,0.769c-0.216,0.319-0.376,0.696-0.479,1.128
			c-0.104,0.432-0.156,0.888-0.156,1.367c0,0.177,0.008,0.301,0.023,0.373s0.112,0.107,0.289,0.107h4.848
			c0.127,0,0.203-0.031,0.228-0.096s0.036-0.184,0.036-0.359C387.148,2139.986,386.937,2139.102,386.544,2138.486z"/>
		<path d="M413.652,2148.95c-0.064,0.104-0.216,0.155-0.456,0.155h-1.607c-0.32,0-0.529-0.051-0.625-0.155s-0.144-0.315-0.144-0.636
			v-12.217c0-0.224-0.024-0.336-0.072-0.336s-0.136,0.104-0.265,0.312l-3.585,6.24c-0.161,0.271-0.272,0.447-0.337,0.527
			s-0.16,0.12-0.289,0.12h-0.529c-0.176,0-0.293-0.04-0.349-0.12c-0.057-0.08-0.165-0.264-0.325-0.552l-3.393-6.097
			c-0.256-0.415-0.385-0.398-0.385,0.049v12.24c0,0.207-0.027,0.363-0.083,0.468s-0.218,0.155-0.487,0.155h-1.548
			c-0.206,0-0.385-0.035-0.536-0.107c-0.15-0.072-0.226-0.301-0.226-0.684v-16.008c0-0.32,0.048-0.529,0.144-0.625
			c0.097-0.096,0.248-0.144,0.457-0.144h1.824c0.176,0,0.319,0.024,0.432,0.071c0.111,0.049,0.231,0.177,0.359,0.385l4.32,7.176
			c0.111,0.176,0.224,0.184,0.336,0.023l4.248-7.151c0.191-0.336,0.447-0.504,0.768-0.504h1.944c0.272,0,0.424,0.068,0.456,0.204
			c0.031,0.136,0.048,0.34,0.048,0.611v16.104C413.748,2148.682,413.716,2148.846,413.652,2148.95z"/>
		<path d="M427.679,2148.878c-0.057,0.152-0.222,0.228-0.496,0.228h-1.524c-0.178,0-0.319-0.035-0.424-0.107
			s-0.157-0.268-0.157-0.588v-1.008c-0.128,0.256-0.312,0.504-0.552,0.744c-0.239,0.239-0.532,0.447-0.876,0.623
			c-0.345,0.177-0.725,0.32-1.141,0.433c-0.416,0.111-0.855,0.168-1.32,0.168c-0.592,0-1.148-0.124-1.668-0.372
			c-0.521-0.248-0.977-0.637-1.369-1.164c-0.392-0.527-0.699-1.212-0.924-2.053c-0.224-0.84-0.336-1.859-0.336-3.059
			c0-1.057,0.092-2.008,0.276-2.857c0.184-0.848,0.456-1.567,0.815-2.159c0.36-0.592,0.805-1.048,1.333-1.368s1.136-0.48,1.824-0.48
			c1.04,0,1.868,0.181,2.484,0.541c0.616,0.359,1.101,0.844,1.452,1.451v-1.056c0-0.399,0.146-0.601,0.436-0.601h1.549
			c0.34,0,0.541,0.057,0.605,0.168c0.064,0.113,0.098,0.297,0.098,0.553v11.256C427.765,2148.49,427.735,2148.727,427.679,2148.878z
			 M424.884,2140.738c0-0.254-0.048-0.557-0.145-0.906c-0.096-0.351-0.252-0.686-0.467-1.004c-0.217-0.318-0.488-0.584-0.816-0.8
			c-0.328-0.215-0.732-0.322-1.212-0.322c-0.816,0-1.44,0.307-1.872,0.919c-0.432,0.613-0.648,1.629-0.648,3.045v2.007
			c0,1.179,0.213,2.114,0.637,2.807s1.067,1.038,1.932,1.038c0.4,0,0.764-0.095,1.092-0.286c0.328-0.19,0.6-0.414,0.816-0.669
			c0.216-0.254,0.384-0.518,0.504-0.787c0.119-0.271,0.18-0.494,0.18-0.67V2140.738z"/>
		<path d="M441.108,2148.854c-0.064,0.168-0.209,0.252-0.433,0.252h-1.56c-0.416,0-0.625-0.287-0.625-0.863v-7.633
			c0-0.319-0.039-0.623-0.119-0.912c-0.08-0.287-0.209-0.539-0.385-0.756c-0.176-0.215-0.408-0.387-0.695-0.516
			c-0.288-0.128-0.641-0.191-1.057-0.191c-0.464,0-0.863,0.088-1.199,0.264s-0.612,0.396-0.828,0.66
			c-0.217,0.264-0.377,0.561-0.48,0.888c-0.104,0.328-0.156,0.636-0.156,0.924v7.224c0,0.32-0.023,0.553-0.072,0.697
			c-0.047,0.144-0.184,0.215-0.407,0.215h-1.513c-0.271,0-0.451-0.067-0.539-0.203c-0.088-0.137-0.133-0.364-0.133-0.685v-11.28
			c0-0.24,0.037-0.424,0.108-0.552c0.072-0.128,0.228-0.192,0.468-0.192h1.536c0.208,0,0.356,0.113,0.444,0.336
			c0.088,0.225,0.132,0.617,0.132,1.177c0.416-0.56,0.928-1,1.536-1.32c0.607-0.319,1.367-0.479,2.279-0.479
			c0.513,0,0.996,0.072,1.453,0.216c0.455,0.144,0.859,0.376,1.211,0.696s0.629,0.744,0.828,1.271
			c0.2,0.528,0.301,1.176,0.301,1.944v7.968C441.204,2148.402,441.171,2148.686,441.108,2148.854z"/>
		<path d="M454.823,2148.878c-0.057,0.152-0.223,0.228-0.496,0.228h-1.525c-0.178,0-0.318-0.035-0.424-0.107
			s-0.156-0.268-0.156-0.588v-1.008c-0.129,0.256-0.312,0.504-0.553,0.744c-0.24,0.239-0.532,0.447-0.877,0.623
			c-0.344,0.177-0.724,0.32-1.14,0.433c-0.417,0.111-0.856,0.168-1.32,0.168c-0.592,0-1.147-0.124-1.668-0.372
			s-0.976-0.637-1.368-1.164s-0.701-1.212-0.924-2.053c-0.225-0.84-0.336-1.859-0.336-3.059c0-1.057,0.092-2.008,0.275-2.857
			c0.184-0.848,0.456-1.567,0.816-2.159c0.359-0.592,0.805-1.048,1.332-1.368s1.137-0.48,1.824-0.48
			c1.041,0,1.868,0.181,2.484,0.541c0.616,0.359,1.101,0.844,1.453,1.451v-1.056c0-0.399,0.145-0.601,0.436-0.601h1.549
			c0.338,0,0.54,0.057,0.604,0.168c0.065,0.113,0.097,0.297,0.097,0.553v11.256C454.907,2148.49,454.879,2148.727,454.823,2148.878z
			 M452.027,2140.738c0-0.254-0.048-0.557-0.144-0.906c-0.096-0.351-0.252-0.686-0.469-1.004c-0.215-0.318-0.488-0.584-0.815-0.8
			c-0.328-0.215-0.731-0.322-1.212-0.322c-0.816,0-1.439,0.307-1.872,0.919c-0.433,0.613-0.647,1.629-0.647,3.045v2.007
			c0,1.179,0.211,2.114,0.635,2.807s1.068,1.038,1.933,1.038c0.399,0,0.764-0.095,1.092-0.286c0.328-0.19,0.601-0.414,0.816-0.669
			c0.216-0.254,0.384-0.518,0.504-0.787c0.12-0.271,0.18-0.494,0.18-0.67V2140.738z"/>
		<path d="M468.216,2150.527c-0.201,0.879-0.509,1.594-0.924,2.145c-0.417,0.552-0.937,0.951-1.561,1.199
			c-0.624,0.246-1.353,0.371-2.184,0.371c-0.561,0-1.045-0.012-1.453-0.036c-0.407-0.024-0.76-0.056-1.056-0.097
			c-0.296-0.039-0.544-0.08-0.743-0.119c-0.201-0.041-0.373-0.076-0.517-0.108c-0.224-0.063-0.396-0.128-0.517-0.192
			c-0.119-0.063-0.18-0.207-0.18-0.432v-1.224c0-0.16,0.061-0.257,0.18-0.288c0.121-0.032,0.373,0,0.756,0.096
			c0.433,0.111,0.92,0.225,1.465,0.336c0.543,0.111,1.136,0.168,1.775,0.168c0.881,0,1.532-0.296,1.957-0.888
			c0.424-0.593,0.651-1.584,0.684-2.976c0-0.08-0.004-0.225-0.012-0.433c-0.009-0.208-0.012-0.352-0.012-0.432
			c-0.433,0.592-0.961,1.032-1.584,1.319c-0.625,0.289-1.393,0.433-2.305,0.433c-0.624,0-1.196-0.12-1.716-0.36
			c-0.521-0.24-0.972-0.632-1.356-1.176c-0.384-0.544-0.684-1.244-0.9-2.1c-0.215-0.855-0.323-1.9-0.323-3.133
			c0-1.023,0.092-1.947,0.276-2.771c0.184-0.824,0.451-1.532,0.804-2.124c0.352-0.592,0.784-1.048,1.296-1.368
			s1.104-0.48,1.775-0.48c0.784,0,1.532,0.126,2.244,0.377c0.712,0.252,1.309,0.701,1.789,1.35c0-0.592,0.035-0.967,0.107-1.127
			s0.229-0.24,0.468-0.24h1.464c0.32,0,0.5,0.076,0.54,0.228c0.04,0.152,0.06,0.364,0.06,0.636v10.211
			C468.515,2148.57,468.415,2149.648,468.216,2150.527z M465.683,2140.698c0-0.303-0.047-0.63-0.144-0.981
			c-0.096-0.351-0.248-0.674-0.456-0.969c-0.208-0.296-0.479-0.543-0.816-0.742c-0.336-0.2-0.735-0.3-1.199-0.3
			c-0.816,0-1.444,0.376-1.885,1.126c-0.439,0.75-0.659,1.723-0.659,2.92v2.012c0,1.164,0.212,2.082,0.636,2.753
			s1.068,1.005,1.932,1.005c0.416,0,0.784-0.083,1.104-0.251c0.319-0.167,0.592-0.366,0.815-0.599
			c0.225-0.23,0.393-0.475,0.504-0.73c0.112-0.255,0.168-0.471,0.168-0.646V2140.698z"/>
		<path d="M482.039,2143.189c-0.104,0.168-0.38,0.252-0.828,0.252h-7.128c0,1.393,0.32,2.393,0.96,3
			c0.64,0.609,1.528,0.912,2.664,0.912c0.991,0,1.776-0.067,2.353-0.203c0.576-0.137,0.975-0.244,1.199-0.324
			s0.393-0.096,0.504-0.049c0.112,0.049,0.168,0.137,0.168,0.265v1.2c0,0.225-0.052,0.376-0.156,0.455
			c-0.104,0.081-0.315,0.168-0.635,0.265c-0.081,0.032-0.244,0.072-0.492,0.12s-0.541,0.092-0.877,0.132s-0.695,0.075-1.08,0.108
			c-0.383,0.031-0.752,0.048-1.104,0.048c-1.04,0-1.947-0.12-2.724-0.36s-1.425-0.624-1.944-1.152
			c-0.52-0.527-0.912-1.211-1.176-2.051c-0.264-0.841-0.396-1.853-0.396-3.037c0-2.319,0.469-4.051,1.404-5.195
			s2.324-1.717,4.164-1.717c1.68,0,2.98,0.441,3.9,1.32c0.92,0.881,1.379,2.129,1.379,3.744v1.488
			C482.194,2142.762,482.144,2143.021,482.039,2143.189z M478.942,2138.486c-0.392-0.616-1.084-0.924-2.075-0.924
			c-0.479,0-0.892,0.096-1.236,0.287c-0.345,0.192-0.624,0.448-0.84,0.769c-0.216,0.319-0.376,0.696-0.479,1.128
			c-0.104,0.432-0.156,0.888-0.156,1.367c0,0.177,0.008,0.301,0.023,0.373s0.112,0.107,0.289,0.107h4.848
			c0.127,0,0.203-0.031,0.228-0.096s0.036-0.184,0.036-0.359C479.547,2139.986,479.335,2139.102,478.942,2138.486z"/>
		<path d="M501.899,2148.854c-0.064,0.168-0.209,0.252-0.433,0.252h-1.584c-0.272,0-0.44-0.067-0.504-0.204
			c-0.063-0.136-0.097-0.356-0.097-0.661v-7.648c0-0.321-0.027-0.625-0.084-0.914c-0.056-0.289-0.155-0.545-0.299-0.771
			c-0.145-0.224-0.345-0.401-0.601-0.528c-0.256-0.129-0.593-0.193-1.008-0.193c-0.384,0-0.716,0.068-0.996,0.205
			s-0.517,0.32-0.708,0.553s-0.344,0.493-0.456,0.781c-0.112,0.289-0.2,0.578-0.265,0.867V2148c0,0.4-0.035,0.686-0.107,0.854
			s-0.221,0.252-0.443,0.252h-1.633c-0.352,0-0.527-0.288-0.527-0.865v-7.648c0-0.321-0.028-0.625-0.084-0.914
			c-0.057-0.289-0.156-0.545-0.301-0.771c-0.144-0.224-0.348-0.401-0.611-0.528c-0.264-0.129-0.604-0.193-1.021-0.193
			c-0.464,0-0.852,0.089-1.163,0.266c-0.312,0.176-0.564,0.4-0.757,0.673s-0.328,0.573-0.407,0.901
			c-0.081,0.33-0.121,0.639-0.121,0.927v7.239c0,0.321-0.023,0.554-0.072,0.698c-0.047,0.145-0.184,0.216-0.407,0.216h-1.513
			c-0.271,0-0.451-0.067-0.539-0.204c-0.088-0.136-0.133-0.364-0.133-0.685v-11.296c0-0.239,0.037-0.423,0.108-0.552
			c0.072-0.128,0.228-0.191,0.468-0.191h1.536c0.208,0,0.356,0.084,0.444,0.252s0.132,0.531,0.132,1.092
			c0.416-0.555,0.884-0.963,1.403-1.224c0.521-0.261,1.205-0.392,2.053-0.392c0.768,0,1.424,0.158,1.968,0.475
			s0.992,0.871,1.345,1.662c0.463-0.664,0.996-1.187,1.596-1.566c0.6-0.381,1.34-0.57,2.22-0.57c0.495,0,0.968,0.072,1.416,0.216
			s0.84,0.376,1.177,0.696c0.336,0.32,0.604,0.744,0.803,1.271c0.2,0.528,0.301,1.176,0.301,1.944v7.968
			C501.995,2148.402,501.962,2148.686,501.899,2148.854z"/>
		<path d="M515.519,2143.189c-0.104,0.168-0.381,0.252-0.828,0.252h-7.128c0,1.393,0.319,2.393,0.96,3
			c0.64,0.609,1.527,0.912,2.664,0.912c0.992,0,1.775-0.067,2.352-0.203c0.576-0.137,0.977-0.244,1.201-0.324
			c0.223-0.08,0.391-0.096,0.504-0.049c0.111,0.049,0.168,0.137,0.168,0.265v1.2c0,0.225-0.053,0.376-0.156,0.455
			c-0.104,0.081-0.316,0.168-0.637,0.265c-0.08,0.032-0.244,0.072-0.492,0.12s-0.539,0.092-0.875,0.132s-0.696,0.075-1.08,0.108
			c-0.385,0.031-0.752,0.048-1.104,0.048c-1.04,0-1.948-0.12-2.724-0.36c-0.776-0.24-1.424-0.624-1.944-1.152
			c-0.521-0.527-0.912-1.211-1.176-2.051c-0.265-0.841-0.396-1.853-0.396-3.037c0-2.319,0.467-4.051,1.403-5.195
			s2.323-1.717,4.164-1.717c1.681,0,2.979,0.441,3.899,1.32c0.92,0.881,1.381,2.129,1.381,3.744v1.488
			C515.675,2142.762,515.622,2143.021,515.519,2143.189z M512.423,2138.486c-0.393-0.616-1.084-0.924-2.076-0.924
			c-0.48,0-0.893,0.096-1.236,0.287c-0.344,0.192-0.624,0.448-0.84,0.769c-0.216,0.319-0.376,0.696-0.48,1.128
			c-0.104,0.432-0.155,0.888-0.155,1.367c0,0.177,0.008,0.301,0.024,0.373c0.016,0.072,0.111,0.107,0.287,0.107h4.848
			c0.129,0,0.205-0.031,0.229-0.096s0.036-0.184,0.036-0.359C513.026,2139.986,512.814,2139.102,512.423,2138.486z"/>
		<path d="M528.706,2148.854c-0.064,0.168-0.208,0.252-0.432,0.252h-1.561c-0.416,0-0.623-0.287-0.623-0.863v-7.633
			c0-0.319-0.041-0.623-0.121-0.912c-0.08-0.287-0.207-0.539-0.383-0.756c-0.177-0.215-0.408-0.387-0.697-0.516
			c-0.287-0.128-0.64-0.191-1.055-0.191c-0.465,0-0.865,0.088-1.201,0.264s-0.611,0.396-0.828,0.66
			c-0.215,0.264-0.375,0.561-0.479,0.888c-0.104,0.328-0.155,0.636-0.155,0.924v7.224c0,0.32-0.024,0.553-0.072,0.697
			c-0.049,0.144-0.185,0.215-0.408,0.215h-1.512c-0.272,0-0.453-0.067-0.541-0.203c-0.088-0.137-0.131-0.364-0.131-0.685v-11.28
			c0-0.24,0.035-0.424,0.107-0.552s0.229-0.192,0.469-0.192h1.535c0.208,0,0.355,0.113,0.444,0.336
			c0.087,0.225,0.132,0.617,0.132,1.177c0.416-0.56,0.928-1,1.536-1.32c0.608-0.319,1.368-0.479,2.28-0.479
			c0.512,0,0.996,0.072,1.451,0.216c0.457,0.144,0.86,0.376,1.213,0.696c0.352,0.32,0.627,0.744,0.828,1.271
			c0.199,0.528,0.299,1.176,0.299,1.944v7.968C528.802,2148.402,528.771,2148.686,528.706,2148.854z"/>
		<path d="M538.378,2138.258c-0.064,0.08-0.225,0.12-0.48,0.12h-2.207v7.776c0,0.4,0.092,0.712,0.275,0.936
			c0.184,0.225,0.436,0.336,0.756,0.336c0.24,0,0.44-0.008,0.601-0.023c0.159-0.016,0.36-0.057,0.601-0.121
			c0.062-0.016,0.123,0.064,0.18,0.24c0.056,0.177,0.096,0.377,0.119,0.601c0.024,0.224,0.032,0.437,0.024,0.636
			c-0.009,0.2-0.036,0.309-0.084,0.324c-0.192,0.08-0.504,0.147-0.937,0.204c-0.432,0.056-0.871,0.084-1.319,0.084
			c-0.572,0-1.049-0.089-1.43-0.265s-0.687-0.411-0.916-0.707c-0.23-0.297-0.393-0.633-0.487-1.008
			c-0.096-0.377-0.143-0.765-0.143-1.164v-7.873h-1.201c-0.16,0-0.264-0.043-0.312-0.131s-0.071-0.213-0.071-0.373v-0.912
			c0-0.191,0.031-0.319,0.096-0.383c0.063-0.064,0.207-0.097,0.432-0.097h1.152v-2.399c0-0.225,0.062-0.373,0.189-0.445
			c0.127-0.071,0.285-0.123,0.477-0.155l1.283-0.24c0.254-0.048,0.424-0.02,0.512,0.084c0.087,0.104,0.131,0.276,0.131,0.517v2.64
			h2.305c0.223,0,0.371,0.048,0.443,0.144s0.107,0.225,0.107,0.385v0.912C538.474,2138.059,538.442,2138.178,538.378,2138.258z"/>
	</g>
</g>
<g id="icons">
	<g id="escalators" display="none">
		<g id="escalator-updown-2" display="inline">
			<g>
				<circle fill="#FFFFFF" cx="241.94" cy="1008.056" r="25.5"/>
			</g>
			<g>
				<g>
					<path fill="#231F20" d="M242.279,987.266c-11.481,0-20.79,9.309-20.79,20.79s9.309,20.791,20.79,20.791
						c11.48,0,20.79-9.309,20.79-20.791S253.76,987.266,242.279,987.266z M242.279,1026.247c-10.029,0-18.191-8.161-18.191-18.191
						c0-10.029,8.162-18.191,18.191-18.191s18.191,8.162,18.191,18.191C260.471,1018.086,252.309,1026.247,242.279,1026.247z
						 M252.613,1000.272l-5.135,0.083l-12.597,13.058h-2.171c-1.694,0.033-3.06,1.467-3.06,3.232c0,1.757,1.354,3.195,3.117,3.23
						l5.186,0.004l12.681-13.146l2.029,0.001c1.693-0.033,3.059-1.468,3.059-3.231
						C255.723,1001.748,254.371,1000.312,252.613,1000.272z M250.541,1006.041l-12.809,13.277h-1.391v-2.469h2.364v-2.451h2.364
						v-2.451h2.365v-2.452h2.365v-2.453h2.364v-2.45h2.376V1006.041z M239.051,999.901c0.76,0,1.377-0.638,1.377-1.426
						c0-0.787-0.617-1.426-1.377-1.426s-1.375,0.639-1.375,1.426C237.676,999.263,238.291,999.901,239.051,999.901z
						 M242.039,1003.242l-1.344,1.386v-2.407c0-2.273-3.289-2.273-3.289,0v7.253l6.166-6.383
						C243.104,1002.757,242.458,1002.808,242.039,1003.242z"/>
				</g>
			</g>
		</g>
		<g id="escalator-updown-3" display="inline">
			<g>
				<circle fill="#FFFFFF" cx="241.94" cy="1244.772" r="25.5"/>
			</g>
			<g>
				<g>
					<path fill="#231F20" d="M242.278,1223.982c-11.48,0-20.789,9.309-20.789,20.79c0,11.482,9.309,20.79,20.789,20.79
						s20.791-9.308,20.791-20.79C263.069,1233.291,253.759,1223.982,242.278,1223.982z M242.278,1262.964
						c-10.029,0-18.191-8.163-18.191-18.192c0-10.03,8.162-18.191,18.191-18.191s18.191,8.161,18.191,18.191
						C260.47,1254.801,252.308,1262.964,242.278,1262.964z M239.05,1236.617c0.76,0,1.377-0.639,1.377-1.425
						c0-0.787-0.617-1.426-1.377-1.426s-1.375,0.639-1.375,1.426C237.675,1235.978,238.29,1236.617,239.05,1236.617z
						 M242.038,1239.957l-1.344,1.386v-2.406c0-2.274-3.289-2.274-3.289,0v7.252l6.166-6.383
						C243.104,1239.473,242.458,1239.524,242.038,1239.957z M252.612,1236.988l-5.135,0.083l-12.596,13.059h-2.172
						c-1.693,0.031-3.059,1.467-3.059,3.231c0,1.756,1.354,3.196,3.117,3.231l5.186,0.003l12.68-13.145h2.029
						c1.693-0.033,3.059-1.467,3.059-3.231C255.722,1238.464,254.37,1237.027,252.612,1236.988z M250.54,1242.758l-12.809,13.276
						h-1.391v-2.469h2.365v-2.451h2.363v-2.451h2.365v-2.453h2.365v-2.452h2.365v-2.45h2.375V1242.758z"/>
				</g>
			</g>
		</g>
	</g>
	<g id="lifts_1_" display="none">
		<g id="lift-3" display="inline">
			<g>
				<circle fill="#FFFFFF" cx="376.2" cy="2077.81" r="25.698"/>
			</g>
			<g>
				<g>
					<path fill-rule="evenodd" clip-rule="evenodd" fill="#231F20" d="M397.151,2077.811c0-11.57-9.381-20.951-20.951-20.951
						s-20.951,9.381-20.951,20.951s9.381,20.951,20.951,20.951S397.151,2089.381,397.151,2077.811z M394.532,2077.811
						c0,10.107-8.225,18.332-18.332,18.332s-18.332-8.225-18.332-18.332c0-9.969,8.005-18.092,17.922-18.313v6.399h-5.752
						c-0.91,0-1.643,0.736-1.643,1.643v18.898c0,0.908,0.732,2.465,1.643,2.465h12.324c0.906,0,1.643-0.734,1.643-1.643v-19.721
						c0-0.906-0.736-1.643-1.643-1.643h-5.752v-6.399C386.527,2059.719,394.532,2067.842,394.532,2077.811z M392.442,2076.457
						c-0.27-0.27-0.752-0.227-1.07,0.092l-1.166,1.164c-0.318,0.32-0.58,0.211-0.58-0.242v-4.094c0-0.453-0.311-0.822-0.689-0.822
						c-0.383,0-0.693,0.371-0.693,0.822v4.094c0,0.451-0.262,0.561-0.582,0.24l-1.162-1.162c-0.318-0.318-0.801-0.361-1.07-0.092
						c-0.27,0.271-0.229,0.752,0.092,1.072l2.834,2.832c0.32,0.32,0.842,0.32,1.162,0l2.834-2.832
						C392.671,2077.209,392.712,2076.729,392.442,2076.457z M366.585,2076.701c0.271-0.275,0.229-0.766-0.092-1.092l-2.855-2.887
						c-0.32-0.324-0.848-0.324-1.168,0l-2.855,2.887c-0.32,0.326-0.363,0.816-0.092,1.092s0.758,0.232,1.078-0.094l1.172-1.184
						c0.32-0.326,0.584-0.215,0.584,0.246v4.172c0,0.457,0.312,0.836,0.697,0.836c0.383,0,0.697-0.375,0.697-0.836v-4.174
						c0-0.461,0.262-0.572,0.584-0.244l1.172,1.184C365.829,2076.934,366.313,2076.977,366.585,2076.701z"/>
				</g>
			</g>
		</g>
		<g id="lift-2" display="inline">
			<g>
				<circle fill="#FFFFFF" cx="376.252" cy="1578.8" r="25.698"/>
			</g>
			<g>
				<g>
					<path fill-rule="evenodd" clip-rule="evenodd" fill="#231F20" d="M397.202,1578.801c0-11.57-9.381-20.951-20.95-20.951
						c-11.571,0-20.952,9.381-20.952,20.951s9.381,20.951,20.952,20.951C387.821,1599.752,397.202,1590.371,397.202,1578.801z
						 M394.584,1578.801c0,10.107-8.226,18.332-18.332,18.332c-10.108,0-18.333-8.225-18.333-18.332
						c0-9.969,8.004-18.092,17.922-18.313v6.399h-5.752c-0.909,0-1.643,0.736-1.643,1.643v18.898c0,0.908,0.733,2.465,1.643,2.465
						h12.324c0.907,0,1.643-0.734,1.643-1.643v-19.721c0-0.906-0.735-1.643-1.643-1.643h-5.752v-6.399
						C386.577,1560.708,394.584,1568.832,394.584,1578.801z M392.494,1577.447c-0.271-0.27-0.753-0.227-1.071,0.092l-1.165,1.164
						c-0.319,0.32-0.58,0.211-0.58-0.242v-4.094c0-0.453-0.312-0.822-0.69-0.822c-0.383,0-0.692,0.371-0.692,0.822v4.094
						c0,0.451-0.263,0.561-0.583,0.24l-1.162-1.162c-0.318-0.318-0.8-0.361-1.069-0.092c-0.27,0.271-0.229,0.752,0.092,1.072
						l2.833,2.832c0.32,0.32,0.843,0.32,1.162,0l2.834-2.832C392.722,1578.199,392.763,1577.719,392.494,1577.447z
						 M366.636,1577.691c0.271-0.275,0.229-0.766-0.092-1.092l-2.855-2.887c-0.32-0.324-0.848-0.324-1.168,0l-2.854,2.887
						c-0.321,0.326-0.364,0.816-0.092,1.092c0.271,0.275,0.757,0.232,1.078-0.094l1.171-1.184c0.32-0.326,0.585-0.215,0.585,0.246
						v4.172c0,0.457,0.312,0.836,0.696,0.836s0.697-0.375,0.697-0.836v-4.174c0-0.461,0.263-0.572,0.584-0.244l1.172,1.184
						C365.88,1577.924,366.364,1577.967,366.636,1577.691z"/>
				</g>
			</g>
		</g>
	</g>
	<g id="admin" display="none">
		<g display="inline">
			<path fill="#FFFFFF" d="M532.77,2006.343c0-14.193-11.506-25.699-25.697-25.699s-25.699,11.506-25.699,25.699
				c0,14.189,11.508,25.695,25.699,25.695S532.77,2020.532,532.77,2006.343z"/>
		</g>
		<g display="inline">
			<g>
				<path fill-rule="evenodd" clip-rule="evenodd" fill="#231F20" d="M507.072,1985.39c-11.57,0-20.951,9.381-20.951,20.953
					c0,11.568,9.381,20.949,20.951,20.949s20.951-9.381,20.951-20.949C528.023,1994.771,518.643,1985.39,507.072,1985.39z
					 M507.072,2024.675c-10.107,0-18.334-8.227-18.334-18.332c0-10.109,8.227-18.334,18.334-18.334s18.332,8.225,18.332,18.334
					C525.404,2016.448,517.18,2024.675,507.072,2024.675z"/>
			</g>
		</g>
		<g display="inline">
			<g>
				<g>
					<g>
						<g>
							<g>
								<path fill="#231F20" d="M504.236,2007.086l-1.16-0.005c0-0.042,0-0.084,0-0.131l1.164,0.007L504.236,2007.086z"/>
								<path fill="#231F20" d="M504.246,2006.763l-1.172-0.007c0-0.042,0-0.085,0-0.13l1.176,0.006L504.246,2006.763z"/>
							</g>
							<g>
								<path fill="#231F20" d="M511.809,2005.899l-0.052-0.119l1.116-0.43c0.016,0.041,0.03,0.082,0.044,0.12L511.809,2005.899z"/>
								<path fill="#231F20" d="M512.765,2005.046c0.015,0.041,0.028,0.082,0.044,0.12l-1.129,0.435l-0.053-0.119L512.765,2005.046z
									"/>
								<g>
									<path fill="#231F20" d="M512.594,2004.581c-0.393-1.061-1.775-4.752-2.035-5.046c-0.367-0.417-1.912-1.187-1.926-1.772
										c0,0-1.258,1.172-3.137,0c-0.012,0.586-1.133,1.129-1.752,1.508c-0.58,0.354-0.947,4.603-0.951,6.866c0,0,0,0.283,0,0.324
										l1.18,0.005l0.053-0.323l0.369-2.272l0.152,2.93h5.038l0.546-4c0,0,0.038-0.232,0.078-0.574l1.224,2.81L512.594,2004.581z"
										/>
									<path fill="#231F20" d="M511.498,2005.186l0.052,0.117l1.149-0.44c-0.002-0.003-0.018-0.049-0.048-0.128L511.498,2005.186z
										"/>
								</g>
								<path fill="#231F20" d="M512.984,2005.655c0.091,0.258,0.145,0.411,0.145,0.411l0,0c0.236,0.593,0.188,1.168-0.105,1.286
									c-0.295,0.115-0.723-0.27-0.957-0.864l-0.18-0.411L512.984,2005.655z"/>
							</g>
						</g>
					</g>
					<path fill="#231F20" d="M507.138,1993.048c-2.358,0-3.032,1.725-2.118,2.238c0,0,0.1,0.088,0.213,0.206
						c-0.002,0-0.002,0.001-0.002,0.001c-0.062,0.188-0.096,0.389-0.096,0.596c0,1.066,0.865,1.932,1.93,1.932
						c1.067,0,1.932-0.865,1.932-1.932c0-0.207-0.033-0.406-0.094-0.595c0.049-0.092,0.145-0.216,0.336-0.364
						C509.659,1994.805,509.496,1993.048,507.138,1993.048z M505.21,1995.188c0,0,0.806-0.598,1.929-0.613
						c1.122-0.018,1.771,0.508,1.771,0.508S507.299,1994.521,505.21,1995.188z"/>
				</g>
			</g>
			<path fill="#231F20" d="M520.989,2007.597c0,0.234-0.189,0.423-0.423,0.423l-26.991-0.001c-0.233,0-0.421-0.188-0.421-0.422
				v-0.75c0-0.23,0.188-0.422,0.421-0.422h26.991c0.233,0,0.423,0.191,0.423,0.422V2007.597z"/>
			<path fill="#231F20" d="M518.883,2015.214c0,0.232-0.188,0.421-0.42,0.421H495.68c-0.232,0-0.42-0.188-0.42-0.421v-5.916
				c0-0.232,0.188-0.42,0.42-0.42h22.783c0.232,0,0.42,0.188,0.42,0.42V2015.214z"/>
		</g>
	</g>
</g>
<g id="paths" display="none">
	
		<line display="inline" fill="none" stroke="#D2232A" stroke-miterlimit="10" x1="321.259" y1="1581.592" x2="321.259" y2="1137.817"/>
	
		<line display="inline" fill="none" stroke="#D2232A" stroke-miterlimit="10" x1="375.841" y1="1581.592" x2="321.259" y2="1581.592"/>
	
		<line id="entrance-A2.01" display="inline" fill="none" stroke="#ED1F24" stroke-miterlimit="10" x1="321.259" y1="1137.817" x2="407.926" y2="1137.817"/>
</g>
</svg>
