<?xml version="1.0" encoding="utf-8"?>
<!-- Generator: Adobe Illustrator 16.0.0, SVG Export Plug-In . SVG Version: 6.00 Build 0)  -->
<!DOCTYPE svg PUBLIC "-//W3C//DTD SVG 1.1//EN" "http://www.w3.org/Graphics/SVG/1.1/DTD/svg11.dtd">
<svg version="1.1" xmlns="http://www.w3.org/2000/svg" xmlns:xlink="http://www.w3.org/1999/xlink" x="0px" y="0px"
	 width="294.644px" height="853.707px" viewBox="0 0 294.644 853.707" enable-background="new 0 0 294.644 853.707"
	 xml:space="preserve">
<g id="general_map">
	<path id="store-4.01" fill="#D58F29" stroke="#FFFFFF" stroke-width="1.779" stroke-miterlimit="3.8637" d="M5.793,715.055
		c-2.071-46.781-5.555-88.75-5.555-88.75l0.861-2.582c-3.968-70.352-1.029-187.921-1.722-259.08
		C-0.602,243.871,8.459,119.932,18.467-0.43h216.434c51.514,204.385,70.104,415.56,55.186,625.573
		c0.01,0.033-77.367,0.039-101.571,0.039v19.936c0,0-4.062,0-4.114,0.094c0.813,7.494,0.89,16.25,0.193,25.416l-9.912,0.316
		c1.127,14.82-1.163,32.277-7.272,50.01c-3.281,9.535-7.385,18.324-12.033,26.125l-18.18-24.121
		c12.222-12.191,26.664-33.227,25.573-58.518c-0.713-16.588-6.496-27.996-13.056-31.336c-26.128-13.301-70.96,22.285-100.136,79.49
		C37.822,735.643,30.4,758.688,27.44,778.858l-1.437,16.307c-0.524,21.977,5.424,38.652,18.056,45.084
		c9.63,4.906,21.801,3.164,34.793-3.85v-27.893h17.796v25.809h35.572l0.158,18.365H14.872l-2.582-28.404L5.793,715.055z"/>
	<g>
		<path fill="#FFFFFF" d="M119.497,345.425v5.09h-8.979v1.867h-3.379v-1.867h-3.4v-3.979h3.4v-7.224h3.111L119.497,345.425z
			 M115.584,346.581l-5.067-3.268v3.268H115.584z"/>
		<path fill="#FFFFFF" d="M105.96,358.916c-1.334,0-2.445-1.022-2.445-2.378s1.089-2.445,2.445-2.445
			c1.312,0,2.355,1.134,2.355,2.423C108.316,357.827,107.272,358.916,105.96,358.916z"/>
		<path fill="#FFFFFF" d="M119.918,366.496c0,4.667-4.29,6.112-8.224,6.112c-4.268,0-8.246-1.712-8.246-6.535
			c0-4.689,4.156-6.312,8.18-6.312c4.4,0,8.29,1.756,8.29,6.713V366.496z M116.34,366.273c0-2.134-3.201-2.289-4.734-2.289
			c-1.423,0-4.579,0.222-4.602,2.2c0,2.045,3.112,2.267,4.602,2.267C113.05,368.451,116.34,368.296,116.34,366.273z"/>
		<path fill="#FFFFFF" d="M119.408,383.41h-15.648v-4.067h12.025v-2.379h3.623V383.41z"/>
	</g>
</g>
<g id="icons">
	<g id="lifts" display="none">
		<g id="lift-2" display="inline">
			<g>
				<path fill="#FFFFFF" d="M103.757,849.457c14.191,0,25.699-11.506,25.699-25.695c0-14.191-11.508-25.699-25.699-25.699
					c-14.189,0-25.695,11.508-25.695,25.699C78.062,837.951,89.568,849.457,103.757,849.457z"/>
			</g>
			<g>
				<g>
					<path fill-rule="evenodd" clip-rule="evenodd" fill="#231F20" d="M103.757,802.808c-11.57,0-20.951,9.381-20.951,20.953
						c0,11.57,9.381,20.951,20.951,20.951c11.572,0,20.953-9.381,20.953-20.951C124.71,812.189,115.33,802.808,103.757,802.808z
						 M103.757,842.093c-10.105,0-18.332-8.227-18.332-18.332c0-9.971,8.007-18.092,17.922-18.313v6.399h-5.752
						c-0.906,0-1.643,0.734-1.643,1.643v19.717c0,0.908,0.736,1.645,1.643,1.645h12.326c0.908,0,1.643-1.557,1.643-2.465V813.49
						c0-0.908-0.734-1.643-1.643-1.643h-5.752v-6.399c9.916,0.223,17.922,8.343,17.922,18.313
						C122.091,833.867,113.865,842.093,103.757,842.093z M93.458,822.498l-1.162,1.162c-0.318,0.32-0.582,0.213-0.582-0.24v-4.094
						c0-0.451-0.311-0.82-0.691-0.82s-0.691,0.367-0.691,0.82v4.096c0,0.453-0.26,0.559-0.58,0.24l-1.164-1.164
						c-0.318-0.318-0.801-0.359-1.072-0.09c-0.27,0.271-0.227,0.75,0.092,1.068l2.836,2.836c0.318,0.316,0.842,0.316,1.162,0
						l2.832-2.836c0.32-0.318,0.361-0.797,0.092-1.068C94.259,822.138,93.779,822.179,93.458,822.498z M120.343,821.56l-2.854-2.889
						c-0.322-0.326-0.848-0.326-1.17,0l-2.854,2.889c-0.322,0.324-0.363,0.814-0.092,1.09c0.271,0.273,0.756,0.232,1.078-0.094
						l1.172-1.186c0.32-0.324,0.584-0.215,0.584,0.246v4.176c0,0.461,0.312,0.834,0.695,0.834c0.385,0,0.697-0.375,0.697-0.834
						v-4.174c0-0.463,0.266-0.57,0.586-0.246l1.17,1.184c0.322,0.326,0.807,0.367,1.078,0.094
						C120.708,822.375,120.666,821.884,120.343,821.56z"/>
				</g>
			</g>
		</g>
	</g>
</g>
<g id="paths" display="none">
	
		<line id="entrance-4.01" display="inline" fill="none" stroke="#ED1C24" stroke-width="1.7789" stroke-miterlimit="3.8637" x1="103.347" y1="698.586" x2="103.347" y2="603.852"/>
</g>
</svg>
