<?xml version="1.0" encoding="utf-8"?>
<!-- Generator: Adobe Illustrator 16.0.0, SVG Export Plug-In . SVG Version: 6.00 Build 0)  -->
<!DOCTYPE svg PUBLIC "-//W3C//DTD SVG 1.1//EN" "http://www.w3.org/Graphics/SVG/1.1/DTD/svg11.dtd">
<svg version="1.1" id="Layer_1" xmlns="http://www.w3.org/2000/svg" xmlns:xlink="http://www.w3.org/1999/xlink" x="0px" y="0px"
	 width="731.289px" height="2330.391px" viewBox="0 0 731.289 2330.391" enable-background="new 0 0 731.289 2330.391"
	 xml:space="preserve">
<g id="general_map">
	<rect x="-0.001" fill="#515251" width="731.291" height="2330.391"/>
	<rect x="14.172" y="14.174" fill="#FDC689" width="702.944" height="2302.043"/>
	<path id="store-A2.01" fill="#F7941E" stroke="#FFFFFF" stroke-width="3" d="M551.45,615.524l0.104,1044.587l-192.606-36.199
		c0,0,22.891-377.688,22.891-490.875c0-129.865-22.889-481.335-22.889-481.335L551.45,615.524z"/>
	<polygon fill="#D2232A" stroke="#FFFFFF" stroke-width="3" points="333.864,1915.061 304.11,2061.898 551.555,2119.977 
		551.555,1956.801 	"/>
	<g id="numbers">
		<g>
			<path d="M445.978,1140.27c-0.146,0.087-0.354,0.13-0.624,0.13h-2.29c-0.271,0-0.432-0.048-0.479-0.146
				c-0.048-0.097-0.121-0.299-0.218-0.609l-1.246-4.06h-7.222l-1.219,4.06c-0.098,0.311-0.184,0.513-0.262,0.609
				c-0.077,0.098-0.23,0.146-0.463,0.146h-2.089c-0.174,0-0.285-0.048-0.333-0.146c-0.049-0.097-0.006-0.367,0.131-0.812
				l5.887-19.344c0.097-0.329,0.217-0.565,0.362-0.711c0.146-0.145,0.382-0.217,0.71-0.217h2.379c0.328,0,0.562,0.073,0.695,0.217
				c0.135,0.146,0.262,0.382,0.377,0.711l5.887,19.344C446.116,1139.906,446.122,1140.182,445.978,1140.27z M437.523,1123.318
				l-2.844,9.686h5.656L437.523,1123.318z"/>
			<path d="M468.553,1140.399h-12.644c-0.137,0-0.268-0.048-0.394-0.146c-0.125-0.097-0.188-0.28-0.188-0.551v-1.393
				c0-1.159,0.178-2.214,0.536-3.16c0.356-0.947,0.812-1.799,1.361-2.553c0.553-0.754,1.16-1.406,1.828-1.958
				c0.666-0.551,1.31-1.01,1.929-1.378c0.58-0.348,1.154-0.705,1.726-1.072c0.57-0.367,1.073-0.75,1.509-1.146
				s0.787-0.797,1.06-1.204c0.27-0.406,0.404-0.821,0.404-1.247c0-0.985-0.329-1.729-0.984-2.232
				c-0.658-0.502-1.615-0.754-2.871-0.754c-0.601,0-1.143,0.053-1.625,0.159s-0.913,0.242-1.29,0.406
				c-0.377,0.165-0.71,0.333-1.001,0.507c-0.289,0.174-0.541,0.319-0.754,0.436c-0.115,0.078-0.251-0.01-0.406-0.262
				c-0.154-0.25-0.289-0.551-0.405-0.898c-0.115-0.348-0.188-0.687-0.218-1.016c-0.029-0.328,0.024-0.531,0.16-0.608
				c0.23-0.135,0.512-0.285,0.84-0.45c0.329-0.164,0.735-0.323,1.219-0.479c0.482-0.154,1.06-0.285,1.727-0.393
				c0.667-0.105,1.454-0.159,2.362-0.159c2.03,0,3.641,0.436,4.829,1.306s1.783,2.194,1.783,3.973c0,0.891-0.188,1.692-0.565,2.407
				s-0.859,1.368-1.449,1.958s-1.257,1.126-2.001,1.609c-0.745,0.482-1.476,0.938-2.189,1.362c-0.464,0.29-0.919,0.604-1.362,0.943
				c-0.444,0.339-0.838,0.725-1.176,1.16c-0.338,0.435-0.619,0.923-0.841,1.464c-0.222,0.542-0.343,1.15-0.362,1.827
				c0,0.271,0.062,0.444,0.188,0.521c0.126,0.078,0.343,0.116,0.652,0.116h8.207c0.328,0,0.561,0.034,0.695,0.102
				c0.136,0.068,0.203,0.209,0.203,0.421v1.885C469.046,1140.235,468.882,1140.399,468.553,1140.399z"/>
			<path d="M476.483,1140.064c-0.049,0.224-0.257,0.334-0.623,0.334h-2.232c-0.368,0-0.615-0.092-0.74-0.275
				c-0.126-0.184-0.188-0.401-0.188-0.653v-1.565c0-0.193,0.048-0.372,0.146-0.536c0.097-0.164,0.241-0.247,0.436-0.247h2.378
				c0.426,0,0.682,0.058,0.769,0.174s0.13,0.28,0.13,0.493v1.565C476.556,1139.605,476.532,1139.843,476.483,1140.064z"/>
			<path d="M494.188,1137.412c-0.405,0.928-0.941,1.643-1.608,2.146s-1.426,0.832-2.277,0.986c-0.851,0.154-1.711,0.232-2.58,0.232
				c-0.87,0-1.75-0.083-2.639-0.247c-0.891-0.164-1.697-0.483-2.422-0.957c-0.726-0.474-1.315-1.131-1.771-1.973
				c-0.454-0.841-0.682-1.929-0.682-3.263v-8.294c0-1.431,0.189-2.609,0.566-3.538c0.377-0.928,0.897-1.663,1.564-2.204
				s1.46-0.918,2.378-1.131c0.918-0.212,1.918-0.318,3.002-0.318c0.929,0,1.816,0.092,2.668,0.274
				c0.851,0.185,1.601,0.532,2.247,1.044c0.647,0.514,1.169,1.213,1.565,2.104c0.396,0.89,0.596,2.029,0.596,3.422v8.004
				C494.798,1135.247,494.595,1136.484,494.188,1137.412z M491.376,1126.45c0-1.701-0.272-2.914-0.816-3.64
				c-0.543-0.725-1.483-1.087-2.821-1.087c-0.854,0-1.549,0.098-2.082,0.29c-0.534,0.194-0.946,0.493-1.237,0.899
				s-0.485,0.918-0.582,1.537s-0.146,1.344-0.146,2.175v7.54c0,0.677,0.102,1.257,0.305,1.74c0.205,0.482,0.479,0.875,0.83,1.175
				c0.35,0.3,0.768,0.521,1.252,0.667s1.01,0.217,1.572,0.217c0.602,0,1.13-0.062,1.586-0.188c0.456-0.125,0.845-0.349,1.165-0.667
				c0.318-0.319,0.562-0.758,0.728-1.319c0.165-0.561,0.248-1.276,0.248-2.146L491.376,1126.45L491.376,1126.45z"/>
			<path d="M504.962,1140.225c-0.065,0.116-0.234,0.174-0.503,0.174h-2.214c-0.271,0-0.447-0.076-0.533-0.231
				s-0.129-0.406-0.129-0.754v-15.921c0-0.213-0.034-0.367-0.102-0.465c-0.068-0.096-0.218-0.145-0.449-0.145h-2.088
				c-0.271,0-0.484-0.184-0.64-0.551v-1.247c0-0.232,0.068-0.406,0.203-0.522c0.135-0.115,0.396-0.231,0.783-0.348l1.885-0.754
				c0.366-0.098,0.617-0.169,0.751-0.217c0.134-0.049,0.317-0.073,0.547-0.073h2.014c0.307,0,0.479,0.078,0.518,0.231
				c0.039,0.155,0.06,0.416,0.06,0.783v19.344C505.062,1139.877,505.029,1140.109,504.962,1140.225z"/>
		</g>
		<g>
			<path d="M331.874,2132.693c-0.057,0.218-0.133,0.447-0.229,0.688c-0.096,0.242-0.199,0.455-0.312,0.64
				c-0.111,0.185-0.199,0.269-0.264,0.252c-0.146-0.062-0.31-0.136-0.492-0.216c-0.185-0.08-0.4-0.155-0.648-0.229
				c-0.249-0.072-0.54-0.136-0.876-0.191c-0.336-0.057-0.72-0.084-1.151-0.084c-1.616,0-2.769,0.336-3.456,1.009
				c-0.688,0.672-1.032,1.688-1.032,3.047v6.24c0,0.655,0.116,1.199,0.348,1.633c0.232,0.432,0.532,0.779,0.9,1.043
				c0.368,0.265,0.788,0.453,1.26,0.563c0.472,0.112,0.948,0.168,1.428,0.168c0.543,0,1.021-0.034,1.429-0.106
				c0.407-0.072,0.768-0.156,1.08-0.252c0.312-0.098,0.575-0.192,0.791-0.289c0.217-0.096,0.396-0.168,0.54-0.215
				c0.08-0.017,0.164,0.075,0.253,0.274c0.088,0.2,0.163,0.432,0.228,0.695c0.064,0.265,0.104,0.517,0.121,0.757
				c0.016,0.239,0,0.384-0.049,0.434c-0.32,0.207-0.896,0.406-1.729,0.6c-0.833,0.191-1.792,0.287-2.88,0.287
				c-2.144,0-3.788-0.471-4.932-1.416c-1.146-0.943-1.716-2.247-1.716-3.912v-6.743c0-0.832,0.104-1.616,0.312-2.353
				c0.208-0.735,0.58-1.383,1.116-1.938s1.268-0.997,2.196-1.319c0.928-0.323,2.111-0.485,3.552-0.485
				c0.688,0,1.274,0.041,1.764,0.122s0.9,0.174,1.236,0.277c0.336,0.105,0.596,0.22,0.78,0.341c0.184,0.121,0.323,0.215,0.42,0.278
				C331.925,2132.342,331.929,2132.475,331.874,2132.693z"/>
			<path d="M345.025,2143.189c-0.104,0.168-0.381,0.252-0.828,0.252h-7.128c0,1.393,0.319,2.393,0.96,3
				c0.64,0.608,1.527,0.912,2.664,0.912c0.99,0,1.775-0.067,2.353-0.203c0.576-0.137,0.976-0.244,1.199-0.324
				s0.393-0.096,0.504-0.049c0.112,0.049,0.168,0.137,0.168,0.265v1.2c0,0.225-0.052,0.376-0.156,0.455
				c-0.104,0.081-0.314,0.168-0.635,0.265c-0.081,0.032-0.244,0.072-0.492,0.12s-0.541,0.092-0.877,0.132s-0.695,0.075-1.08,0.108
				c-0.383,0.031-0.752,0.048-1.104,0.048c-1.04,0-1.947-0.12-2.725-0.36c-0.776-0.24-1.425-0.624-1.943-1.152
				c-0.521-0.526-0.912-1.211-1.177-2.051c-0.264-0.841-0.396-1.853-0.396-3.037c0-2.318,0.469-4.051,1.404-5.195
				c0.935-1.144,2.323-1.717,4.164-1.717c1.68,0,2.979,0.441,3.899,1.32c0.92,0.881,1.379,2.129,1.379,3.744v1.488
				C345.181,2142.762,345.13,2143.021,345.025,2143.189z M341.929,2138.486c-0.392-0.616-1.084-0.924-2.075-0.924
				c-0.479,0-0.892,0.096-1.235,0.287c-0.345,0.191-0.624,0.447-0.84,0.769c-0.217,0.319-0.376,0.696-0.479,1.128
				s-0.156,0.888-0.156,1.367c0,0.177,0.009,0.301,0.023,0.373s0.112,0.106,0.289,0.106h4.848c0.127,0,0.203-0.03,0.229-0.096
				c0.024-0.065,0.036-0.185,0.036-0.358C342.533,2139.986,342.321,2139.102,341.929,2138.486z"/>
			<path d="M358.214,2148.854c-0.063,0.168-0.209,0.252-0.433,0.252h-1.561c-0.416,0-0.625-0.287-0.625-0.862v-7.634
				c0-0.318-0.039-0.623-0.119-0.912c-0.079-0.287-0.209-0.539-0.385-0.756c-0.176-0.215-0.408-0.387-0.695-0.516
				c-0.287-0.128-0.641-0.191-1.057-0.191c-0.464,0-0.863,0.088-1.199,0.264c-0.336,0.177-0.611,0.396-0.828,0.66
				s-0.377,0.562-0.479,0.889c-0.104,0.327-0.156,0.636-0.156,0.924v7.224c0,0.32-0.022,0.554-0.072,0.697
				c-0.047,0.144-0.184,0.215-0.406,0.215h-1.514c-0.271,0-0.45-0.066-0.539-0.202c-0.088-0.138-0.133-0.364-0.133-0.686v-11.28
				c0-0.239,0.037-0.424,0.108-0.552c0.072-0.128,0.228-0.191,0.468-0.191h1.536c0.208,0,0.355,0.112,0.444,0.336
				c0.088,0.225,0.132,0.616,0.132,1.177c0.416-0.561,0.928-1,1.536-1.32c0.606-0.319,1.366-0.479,2.278-0.479
				c0.514,0,0.996,0.072,1.453,0.217c0.455,0.144,0.859,0.376,1.211,0.695c0.353,0.32,0.629,0.744,0.828,1.271
				c0.2,0.528,0.301,1.176,0.301,1.944v7.968C358.31,2148.402,358.276,2148.686,358.214,2148.854z"/>
			<path d="M367.885,2138.258c-0.062,0.08-0.224,0.12-0.479,0.12h-2.209v7.776c0,0.399,0.093,0.712,0.276,0.936
				c0.185,0.226,0.437,0.336,0.757,0.336c0.238,0,0.438-0.008,0.6-0.022s0.359-0.058,0.6-0.121c0.064-0.017,0.124,0.063,0.181,0.239
				c0.057,0.178,0.097,0.377,0.121,0.602c0.022,0.225,0.03,0.438,0.022,0.636c-0.008,0.2-0.036,0.31-0.084,0.324
				c-0.191,0.08-0.504,0.147-0.936,0.204c-0.434,0.056-0.873,0.084-1.32,0.084c-0.572,0-1.049-0.089-1.43-0.265
				s-0.687-0.411-0.916-0.707c-0.23-0.298-0.394-0.634-0.488-1.009c-0.095-0.377-0.143-0.765-0.143-1.164v-7.873h-1.199
				c-0.16,0-0.265-0.043-0.312-0.131s-0.072-0.213-0.072-0.373v-0.912c0-0.19,0.032-0.318,0.098-0.383
				c0.062-0.064,0.208-0.097,0.432-0.097h1.152v-2.399c0-0.225,0.062-0.373,0.189-0.445c0.127-0.07,0.285-0.123,0.477-0.154
				l1.284-0.24c0.253-0.048,0.424-0.02,0.511,0.084s0.131,0.275,0.131,0.518v2.64h2.304c0.226,0,0.372,0.048,0.444,0.144
				c0.071,0.096,0.108,0.226,0.108,0.385v0.912C367.981,2138.059,367.948,2138.178,367.885,2138.258z"/>
			<path d="M377.221,2137.802c-0.048,0.24-0.168,0.36-0.359,0.36c-0.32,0-0.656,0.04-1.008,0.119
				c-0.353,0.081-0.664,0.209-0.937,0.385c-0.561,0.32-1.004,0.688-1.332,1.104s-0.492,0.816-0.492,1.2v7.225
				c0,0.319-0.022,0.553-0.071,0.696c-0.049,0.145-0.185,0.216-0.408,0.216h-1.513c-0.271,0-0.451-0.067-0.54-0.203
				c-0.088-0.137-0.132-0.364-0.132-0.685v-11.28c0-0.24,0.036-0.425,0.107-0.552c0.072-0.129,0.229-0.192,0.469-0.192h1.535
				c0.16,0,0.297,0.045,0.408,0.133s0.168,0.252,0.168,0.492v1.224c0.479-0.688,1.049-1.195,1.705-1.523
				c0.654-0.327,1.352-0.492,2.088-0.492c0.096,0,0.188,0.014,0.274,0.037c0.089,0.023,0.124,0.101,0.108,0.229L377.221,2137.802z"
				/>
			<path d="M389.641,2143.189c-0.104,0.168-0.38,0.252-0.828,0.252h-7.128c0,1.393,0.32,2.393,0.96,3
				c0.641,0.608,1.528,0.912,2.664,0.912c0.991,0,1.776-0.067,2.354-0.203c0.576-0.137,0.975-0.244,1.199-0.324
				c0.224-0.08,0.393-0.096,0.504-0.049c0.111,0.049,0.168,0.137,0.168,0.265v1.2c0,0.225-0.052,0.376-0.156,0.455
				c-0.104,0.081-0.315,0.168-0.635,0.265c-0.081,0.032-0.244,0.072-0.492,0.12s-0.541,0.092-0.877,0.132s-0.695,0.075-1.08,0.108
				c-0.383,0.031-0.752,0.048-1.104,0.048c-1.04,0-1.947-0.12-2.725-0.36s-1.425-0.624-1.944-1.152
				c-0.52-0.526-0.911-1.211-1.176-2.051c-0.264-0.841-0.396-1.853-0.396-3.037c0-2.318,0.469-4.051,1.403-5.195
				c0.936-1.144,2.324-1.717,4.164-1.717c1.681,0,2.98,0.441,3.9,1.32c0.92,0.881,1.379,2.129,1.379,3.744v1.488
				C389.796,2142.762,389.745,2143.021,389.641,2143.189z M386.544,2138.486c-0.392-0.616-1.084-0.924-2.075-0.924
				c-0.479,0-0.892,0.096-1.235,0.287c-0.346,0.191-0.624,0.447-0.841,0.769c-0.216,0.319-0.376,0.696-0.479,1.128
				c-0.104,0.432-0.156,0.888-0.156,1.367c0,0.177,0.008,0.301,0.023,0.373c0.015,0.072,0.111,0.106,0.289,0.106h4.848
				c0.127,0,0.203-0.03,0.229-0.096c0.024-0.065,0.035-0.185,0.035-0.358C387.148,2139.986,386.938,2139.102,386.544,2138.486z"/>
			<path d="M413.652,2148.95c-0.064,0.104-0.217,0.155-0.456,0.155h-1.607c-0.32,0-0.529-0.052-0.625-0.155
				c-0.096-0.104-0.144-0.315-0.144-0.636v-12.218c0-0.224-0.024-0.336-0.072-0.336s-0.136,0.104-0.265,0.312l-3.585,6.239
				c-0.161,0.271-0.272,0.447-0.338,0.527c-0.064,0.08-0.159,0.12-0.288,0.12h-0.529c-0.176,0-0.293-0.04-0.35-0.12
				s-0.165-0.264-0.324-0.552l-3.394-6.097c-0.256-0.415-0.385-0.398-0.385,0.049v12.24c0,0.207-0.027,0.363-0.083,0.468
				s-0.218,0.155-0.487,0.155h-1.548c-0.206,0-0.385-0.035-0.536-0.107c-0.149-0.072-0.226-0.301-0.226-0.684v-16.008
				c0-0.32,0.048-0.529,0.144-0.625c0.098-0.097,0.248-0.145,0.457-0.145h1.824c0.176,0,0.319,0.023,0.432,0.071
				c0.111,0.049,0.231,0.177,0.359,0.385l4.32,7.176c0.11,0.177,0.224,0.185,0.336,0.023l4.248-7.151
				c0.19-0.336,0.446-0.504,0.768-0.504h1.944c0.271,0,0.424,0.068,0.456,0.204c0.031,0.136,0.048,0.341,0.048,0.611v16.104
				C413.748,2148.682,413.716,2148.846,413.652,2148.95z"/>
			<path d="M427.679,2148.878c-0.057,0.152-0.222,0.228-0.496,0.228h-1.523c-0.178,0-0.319-0.034-0.424-0.106
				c-0.105-0.072-0.157-0.269-0.157-0.588v-1.008c-0.128,0.256-0.312,0.504-0.552,0.743s-0.532,0.447-0.876,0.623
				c-0.346,0.178-0.726,0.32-1.142,0.434c-0.416,0.111-0.854,0.168-1.319,0.168c-0.593,0-1.148-0.124-1.669-0.372
				s-0.977-0.637-1.368-1.164c-0.393-0.527-0.699-1.212-0.925-2.053c-0.224-0.841-0.336-1.859-0.336-3.06
				c0-1.057,0.093-2.008,0.276-2.856s0.456-1.567,0.815-2.159s0.805-1.048,1.333-1.368c0.527-0.319,1.136-0.479,1.823-0.479
				c1.04,0,1.868,0.181,2.484,0.541c0.616,0.358,1.101,0.844,1.452,1.451v-1.057c0-0.398,0.146-0.601,0.436-0.601h1.549
				c0.341,0,0.541,0.057,0.605,0.168c0.064,0.112,0.098,0.297,0.098,0.553v11.256
				C427.765,2148.49,427.735,2148.727,427.679,2148.878z M424.884,2140.738c0-0.254-0.048-0.557-0.145-0.906
				c-0.097-0.352-0.252-0.686-0.467-1.004c-0.218-0.318-0.488-0.584-0.816-0.8s-0.732-0.322-1.212-0.322
				c-0.816,0-1.44,0.307-1.872,0.919c-0.432,0.613-0.648,1.629-0.648,3.045v2.007c0,1.179,0.213,2.114,0.638,2.808
				c0.424,0.692,1.066,1.037,1.932,1.037c0.4,0,0.764-0.095,1.092-0.285s0.601-0.414,0.816-0.669
				c0.216-0.254,0.384-0.519,0.504-0.787c0.119-0.271,0.18-0.494,0.18-0.67L424.884,2140.738L424.884,2140.738z"/>
			<path d="M441.108,2148.854c-0.064,0.168-0.209,0.252-0.434,0.252h-1.56c-0.416,0-0.625-0.287-0.625-0.862v-7.634
				c0-0.318-0.039-0.623-0.119-0.912c-0.08-0.287-0.209-0.539-0.385-0.756c-0.177-0.215-0.408-0.387-0.695-0.516
				c-0.288-0.128-0.641-0.191-1.057-0.191c-0.465,0-0.863,0.088-1.199,0.264c-0.336,0.177-0.612,0.396-0.828,0.66
				c-0.217,0.264-0.377,0.562-0.48,0.889s-0.155,0.636-0.155,0.924v7.224c0,0.32-0.023,0.554-0.072,0.697
				c-0.047,0.144-0.184,0.215-0.407,0.215h-1.513c-0.271,0-0.451-0.066-0.539-0.202c-0.088-0.138-0.133-0.364-0.133-0.686v-11.28
				c0-0.239,0.037-0.424,0.107-0.552c0.072-0.128,0.229-0.191,0.469-0.191h1.535c0.208,0,0.356,0.112,0.444,0.336
				c0.088,0.225,0.132,0.616,0.132,1.177c0.416-0.561,0.929-1,1.536-1.32c0.607-0.319,1.367-0.479,2.279-0.479
				c0.513,0,0.996,0.072,1.453,0.217c0.455,0.144,0.858,0.376,1.211,0.695c0.352,0.32,0.629,0.744,0.828,1.271
				c0.199,0.528,0.301,1.176,0.301,1.944v7.968C441.204,2148.402,441.171,2148.686,441.108,2148.854z"/>
			<path d="M454.823,2148.878c-0.058,0.152-0.224,0.228-0.496,0.228h-1.525c-0.178,0-0.317-0.034-0.424-0.106
				s-0.156-0.269-0.156-0.588v-1.008c-0.129,0.256-0.312,0.504-0.553,0.743c-0.24,0.239-0.532,0.447-0.877,0.623
				c-0.344,0.178-0.724,0.32-1.14,0.434c-0.417,0.111-0.856,0.168-1.32,0.168c-0.592,0-1.147-0.124-1.668-0.372
				c-0.521-0.248-0.977-0.637-1.368-1.164s-0.701-1.212-0.924-2.053c-0.226-0.841-0.336-1.859-0.336-3.06
				c0-1.057,0.092-2.008,0.274-2.856c0.185-0.849,0.456-1.567,0.816-2.159c0.359-0.592,0.805-1.048,1.332-1.368
				c0.527-0.319,1.137-0.479,1.824-0.479c1.041,0,1.868,0.181,2.483,0.541c0.616,0.358,1.102,0.844,1.453,1.451v-1.057
				c0-0.398,0.146-0.601,0.437-0.601h1.549c0.338,0,0.54,0.057,0.604,0.168c0.065,0.112,0.098,0.297,0.098,0.553v11.256
				C454.907,2148.49,454.879,2148.727,454.823,2148.878z M452.027,2140.738c0-0.254-0.049-0.557-0.145-0.906
				c-0.096-0.352-0.252-0.686-0.469-1.004c-0.215-0.318-0.488-0.584-0.815-0.8s-0.73-0.322-1.212-0.322
				c-0.815,0-1.438,0.307-1.872,0.919c-0.433,0.613-0.646,1.629-0.646,3.045v2.007c0,1.179,0.211,2.114,0.635,2.808
				c0.424,0.692,1.068,1.037,1.933,1.037c0.399,0,0.765-0.095,1.093-0.285s0.601-0.414,0.815-0.669
				c0.216-0.254,0.385-0.519,0.504-0.787c0.12-0.271,0.181-0.494,0.181-0.67L452.027,2140.738L452.027,2140.738z"/>
			<path d="M468.216,2150.527c-0.201,0.879-0.509,1.594-0.924,2.145c-0.417,0.553-0.937,0.951-1.561,1.199
				c-0.624,0.246-1.354,0.371-2.185,0.371c-0.561,0-1.045-0.012-1.453-0.036c-0.407-0.023-0.76-0.056-1.056-0.097
				c-0.296-0.039-0.544-0.08-0.743-0.119c-0.201-0.041-0.373-0.076-0.517-0.107c-0.225-0.063-0.396-0.128-0.518-0.192
				c-0.119-0.062-0.18-0.207-0.18-0.432v-1.224c0-0.16,0.061-0.258,0.18-0.289c0.121-0.031,0.373,0,0.756,0.097
				c0.434,0.11,0.921,0.225,1.466,0.336c0.543,0.11,1.136,0.168,1.774,0.168c0.881,0,1.532-0.296,1.957-0.888
				c0.424-0.594,0.651-1.584,0.685-2.977c0-0.08-0.005-0.225-0.013-0.434c-0.009-0.207-0.012-0.352-0.012-0.432
				c-0.433,0.592-0.961,1.032-1.584,1.319c-0.625,0.289-1.394,0.433-2.305,0.433c-0.624,0-1.196-0.119-1.717-0.359
				s-0.972-0.633-1.355-1.176c-0.384-0.545-0.685-1.244-0.9-2.101c-0.215-0.854-0.322-1.899-0.322-3.133
				c0-1.023,0.092-1.947,0.275-2.771c0.185-0.823,0.451-1.532,0.804-2.124s0.784-1.048,1.297-1.367
				c0.512-0.32,1.104-0.48,1.774-0.48c0.784,0,1.532,0.126,2.244,0.377c0.712,0.252,1.309,0.701,1.789,1.35
				c0-0.592,0.035-0.967,0.106-1.127c0.072-0.159,0.229-0.239,0.469-0.239h1.464c0.32,0,0.5,0.075,0.54,0.228s0.06,0.364,0.06,0.637
				v10.211C468.515,2148.57,468.415,2149.648,468.216,2150.527z M465.683,2140.698c0-0.304-0.047-0.63-0.144-0.981
				c-0.096-0.351-0.248-0.674-0.456-0.969c-0.208-0.296-0.479-0.543-0.816-0.742c-0.336-0.199-0.734-0.3-1.198-0.3
				c-0.816,0-1.444,0.376-1.886,1.126c-0.438,0.75-0.658,1.723-0.658,2.92v2.012c0,1.164,0.212,2.082,0.636,2.753
				s1.067,1.005,1.932,1.005c0.416,0,0.784-0.083,1.104-0.251c0.318-0.167,0.592-0.366,0.814-0.599
				c0.226-0.23,0.394-0.476,0.504-0.73c0.112-0.255,0.168-0.471,0.168-0.646V2140.698L465.683,2140.698z"/>
			<path d="M482.039,2143.189c-0.104,0.168-0.38,0.252-0.828,0.252h-7.128c0,1.393,0.32,2.393,0.96,3
				c0.64,0.608,1.528,0.912,2.664,0.912c0.991,0,1.776-0.067,2.353-0.203c0.576-0.137,0.976-0.244,1.199-0.324
				c0.225-0.08,0.394-0.096,0.504-0.049c0.112,0.049,0.168,0.137,0.168,0.265v1.2c0,0.225-0.052,0.376-0.155,0.455
				c-0.104,0.081-0.315,0.168-0.636,0.265c-0.081,0.032-0.243,0.072-0.491,0.12s-0.541,0.092-0.878,0.132
				c-0.336,0.04-0.694,0.075-1.079,0.108c-0.384,0.031-0.752,0.048-1.104,0.048c-1.04,0-1.947-0.12-2.724-0.36
				c-0.777-0.24-1.426-0.624-1.944-1.152c-0.52-0.526-0.912-1.211-1.176-2.051c-0.265-0.841-0.396-1.853-0.396-3.037
				c0-2.318,0.47-4.051,1.404-5.195c0.935-1.144,2.324-1.717,4.164-1.717c1.68,0,2.979,0.441,3.9,1.32
				c0.92,0.881,1.379,2.129,1.379,3.744v1.488C482.194,2142.762,482.144,2143.021,482.039,2143.189z M478.942,2138.486
				c-0.393-0.616-1.084-0.924-2.075-0.924c-0.479,0-0.893,0.096-1.236,0.287c-0.345,0.191-0.624,0.447-0.84,0.769
				c-0.216,0.319-0.376,0.696-0.479,1.128s-0.155,0.888-0.155,1.367c0,0.177,0.008,0.301,0.022,0.373
				c0.016,0.072,0.112,0.106,0.289,0.106h4.849c0.127,0,0.202-0.03,0.228-0.096s0.036-0.185,0.036-0.358
				C479.547,2139.986,479.335,2139.102,478.942,2138.486z"/>
			<path d="M501.899,2148.854c-0.064,0.168-0.209,0.252-0.434,0.252h-1.584c-0.271,0-0.439-0.066-0.504-0.203
				c-0.062-0.137-0.097-0.356-0.097-0.661v-7.648c0-0.321-0.027-0.625-0.084-0.914s-0.155-0.545-0.299-0.771
				c-0.146-0.225-0.346-0.401-0.602-0.528c-0.256-0.129-0.593-0.193-1.008-0.193c-0.384,0-0.716,0.068-0.996,0.205
				c-0.28,0.138-0.517,0.32-0.708,0.554c-0.191,0.232-0.344,0.492-0.456,0.78c-0.112,0.289-0.2,0.578-0.265,0.867V2148
				c0,0.4-0.035,0.686-0.107,0.854s-0.221,0.252-0.443,0.252h-1.633c-0.352,0-0.526-0.287-0.526-0.864v-7.648
				c0-0.321-0.028-0.625-0.084-0.914c-0.058-0.289-0.156-0.545-0.302-0.771c-0.144-0.225-0.348-0.401-0.61-0.528
				c-0.265-0.129-0.604-0.193-1.021-0.193c-0.464,0-0.852,0.089-1.163,0.267c-0.312,0.176-0.563,0.399-0.757,0.673
				c-0.192,0.273-0.328,0.573-0.407,0.901c-0.081,0.33-0.121,0.639-0.121,0.927v7.239c0,0.32-0.022,0.554-0.071,0.697
				c-0.047,0.146-0.185,0.217-0.407,0.217h-1.513c-0.271,0-0.451-0.067-0.539-0.205c-0.088-0.136-0.133-0.363-0.133-0.685v-11.296
				c0-0.239,0.036-0.423,0.107-0.552c0.072-0.128,0.229-0.191,0.468-0.191h1.536c0.208,0,0.356,0.084,0.444,0.252
				s0.132,0.531,0.132,1.093c0.416-0.556,0.884-0.963,1.403-1.225c0.521-0.261,1.205-0.393,2.053-0.393
				c0.768,0,1.424,0.158,1.968,0.476s0.992,0.871,1.346,1.662c0.463-0.664,0.995-1.187,1.596-1.565c0.6-0.382,1.34-0.57,2.22-0.57
				c0.495,0,0.968,0.072,1.416,0.216s0.84,0.376,1.177,0.696c0.336,0.32,0.604,0.744,0.804,1.271
				c0.199,0.528,0.301,1.177,0.301,1.944v7.968C501.995,2148.402,501.962,2148.686,501.899,2148.854z"/>
			<path d="M515.519,2143.189c-0.104,0.168-0.381,0.252-0.827,0.252h-7.129c0,1.393,0.319,2.393,0.961,3
				c0.64,0.608,1.526,0.912,2.663,0.912c0.992,0,1.775-0.067,2.353-0.203c0.576-0.137,0.977-0.244,1.201-0.324
				c0.223-0.08,0.391-0.096,0.504-0.049c0.111,0.049,0.168,0.137,0.168,0.265v1.2c0,0.225-0.053,0.376-0.156,0.455
				c-0.104,0.081-0.315,0.168-0.637,0.265c-0.08,0.032-0.244,0.072-0.492,0.12s-0.539,0.092-0.875,0.132s-0.696,0.075-1.08,0.108
				c-0.385,0.031-0.752,0.048-1.104,0.048c-1.04,0-1.948-0.12-2.725-0.36c-0.775-0.24-1.424-0.624-1.943-1.152
				c-0.521-0.526-0.912-1.211-1.177-2.051c-0.265-0.841-0.396-1.853-0.396-3.037c0-2.318,0.467-4.051,1.403-5.195
				c0.936-1.144,2.322-1.717,4.163-1.717c1.682,0,2.979,0.441,3.899,1.32c0.92,0.881,1.381,2.129,1.381,3.744v1.488
				C515.675,2142.762,515.622,2143.021,515.519,2143.189z M512.423,2138.486c-0.393-0.616-1.084-0.924-2.076-0.924
				c-0.479,0-0.893,0.096-1.235,0.287c-0.345,0.191-0.624,0.447-0.84,0.769c-0.217,0.319-0.377,0.696-0.48,1.128
				c-0.104,0.432-0.155,0.888-0.155,1.367c0,0.177,0.008,0.301,0.024,0.373c0.016,0.072,0.11,0.106,0.287,0.106h4.848
				c0.129,0,0.205-0.03,0.229-0.096c0.023-0.065,0.035-0.185,0.035-0.358C513.026,2139.986,512.814,2139.102,512.423,2138.486z"/>
			<path d="M528.706,2148.854c-0.064,0.168-0.208,0.252-0.432,0.252h-1.562c-0.416,0-0.623-0.287-0.623-0.862v-7.634
				c0-0.318-0.041-0.623-0.121-0.912c-0.08-0.287-0.207-0.539-0.383-0.756c-0.177-0.215-0.408-0.387-0.697-0.516
				c-0.287-0.128-0.64-0.191-1.055-0.191c-0.465,0-0.865,0.088-1.201,0.264c-0.336,0.177-0.61,0.396-0.828,0.66
				c-0.215,0.264-0.375,0.562-0.479,0.889c-0.104,0.327-0.155,0.636-0.155,0.924v7.224c0,0.32-0.023,0.554-0.072,0.697
				s-0.185,0.215-0.407,0.215h-1.513c-0.271,0-0.453-0.066-0.541-0.202c-0.088-0.138-0.131-0.364-0.131-0.686v-11.28
				c0-0.239,0.035-0.424,0.107-0.552c0.071-0.128,0.229-0.191,0.469-0.191h1.535c0.208,0,0.354,0.112,0.443,0.336
				c0.087,0.225,0.133,0.616,0.133,1.177c0.416-0.561,0.928-1,1.535-1.32c0.608-0.319,1.368-0.479,2.28-0.479
				c0.512,0,0.996,0.072,1.451,0.217c0.457,0.144,0.86,0.376,1.213,0.695c0.353,0.32,0.627,0.744,0.828,1.271
				c0.199,0.528,0.299,1.176,0.299,1.944v7.968C528.802,2148.402,528.771,2148.686,528.706,2148.854z"/>
			<path d="M538.378,2138.258c-0.063,0.08-0.225,0.12-0.479,0.12h-2.207v7.776c0,0.399,0.092,0.712,0.274,0.936
				c0.185,0.226,0.437,0.336,0.756,0.336c0.24,0,0.44-0.008,0.602-0.022c0.159-0.017,0.359-0.058,0.601-0.121
				c0.062-0.017,0.123,0.063,0.181,0.239c0.056,0.178,0.096,0.377,0.118,0.602c0.024,0.225,0.032,0.438,0.024,0.636
				c-0.009,0.2-0.036,0.31-0.084,0.324c-0.192,0.08-0.504,0.147-0.937,0.204c-0.433,0.056-0.871,0.084-1.319,0.084
				c-0.572,0-1.049-0.089-1.43-0.265c-0.382-0.176-0.688-0.411-0.916-0.707c-0.23-0.298-0.394-0.634-0.487-1.009
				c-0.096-0.377-0.144-0.765-0.144-1.164v-7.873h-1.2c-0.16,0-0.265-0.043-0.312-0.131s-0.071-0.213-0.071-0.373v-0.912
				c0-0.19,0.031-0.318,0.097-0.383c0.062-0.064,0.207-0.097,0.432-0.097h1.152v-2.399c0-0.225,0.062-0.373,0.188-0.445
				c0.127-0.07,0.285-0.123,0.478-0.154l1.283-0.24c0.254-0.048,0.424-0.02,0.512,0.084c0.087,0.104,0.131,0.275,0.131,0.518v2.64
				h2.305c0.224,0,0.371,0.048,0.443,0.144s0.107,0.226,0.107,0.385v0.912C538.474,2138.059,538.442,2138.178,538.378,2138.258z"/>
		</g>
	</g>
</g>
<g id="icons">
	<g id="escalators" display="none">
		<g id="escalator-updown-2" display="inline">
			<g>
				<circle fill="#FFFFFF" cx="241.94" cy="1008.056" r="25.5"/>
			</g>
			<g>
				<g>
					<path fill="#231F20" d="M242.279,987.266c-11.481,0-20.79,9.31-20.79,20.79c0,11.481,9.309,20.791,20.79,20.791
						c11.48,0,20.79-9.309,20.79-20.791C263.069,996.574,253.76,987.266,242.279,987.266z M242.279,1026.247
						c-10.029,0-18.191-8.161-18.191-18.191c0-10.028,8.162-18.19,18.191-18.19c10.029,0,18.191,8.162,18.191,18.19
						C260.471,1018.086,252.309,1026.247,242.279,1026.247z M252.613,1000.271l-5.135,0.084l-12.597,13.058h-2.171
						c-1.694,0.033-3.06,1.467-3.06,3.231c0,1.758,1.354,3.195,3.117,3.23l5.186,0.004l12.681-13.146l2.029,0.001
						c1.693-0.033,3.059-1.469,3.059-3.231C255.723,1001.748,254.371,1000.312,252.613,1000.271z M250.541,1006.041l-12.809,13.277
						h-1.391v-2.47h2.364v-2.45h2.364v-2.451h2.365v-2.452h2.365v-2.453h2.364v-2.45h2.376v1.449H250.541z M239.051,999.901
						c0.76,0,1.377-0.639,1.377-1.427c0-0.787-0.617-1.426-1.377-1.426c-0.76,0-1.375,0.639-1.375,1.426
						C237.676,999.263,238.291,999.901,239.051,999.901z M242.039,1003.242l-1.344,1.386v-2.407c0-2.272-3.289-2.272-3.289,0v7.253
						l6.166-6.383C243.104,1002.757,242.458,1002.808,242.039,1003.242z"/>
				</g>
			</g>
		</g>
		<g id="escalator-updown-3" display="inline">
			<g>
				<circle fill="#FFFFFF" cx="241.94" cy="1244.771" r="25.5"/>
			</g>
			<g>
				<g>
					<path fill="#231F20" d="M242.278,1223.982c-11.48,0-20.789,9.309-20.789,20.79s9.309,20.79,20.789,20.79
						s20.791-9.309,20.791-20.79S253.759,1223.982,242.278,1223.982z M242.278,1262.964c-10.029,0-18.191-8.163-18.191-18.192
						s8.162-18.19,18.191-18.19c10.029,0,18.191,8.161,18.191,18.19C260.47,1254.801,252.308,1262.964,242.278,1262.964z
						 M239.05,1236.617c0.76,0,1.377-0.64,1.377-1.426s-0.617-1.426-1.377-1.426c-0.76,0-1.375,0.64-1.375,1.426
						C237.675,1235.979,238.29,1236.617,239.05,1236.617z M242.038,1239.957l-1.344,1.386v-2.405c0-2.274-3.289-2.274-3.289,0v7.252
						l6.166-6.384C243.104,1239.473,242.458,1239.524,242.038,1239.957z M252.612,1236.988l-5.135,0.083l-12.596,13.059h-2.172
						c-1.693,0.031-3.059,1.467-3.059,3.231c0,1.756,1.354,3.195,3.117,3.23l5.186,0.003l12.68-13.145h2.029
						c1.693-0.033,3.059-1.468,3.059-3.231C255.722,1238.464,254.37,1237.027,252.612,1236.988z M250.54,1242.758l-12.809,13.276
						h-1.391v-2.469h2.365v-2.451h2.363v-2.451h2.365v-2.453h2.365v-2.452h2.365v-2.45h2.375v1.45H250.54z"/>
				</g>
			</g>
		</g>
	</g>
	<g id="lifts_1_" display="none">
		<g id="lift-3" display="inline">
			<g>
				<circle fill="#FFFFFF" cx="376.2" cy="2077.81" r="25.698"/>
			</g>
			<g>
				<g>
					<path fill="#231F20" d="M397.151,2077.811c0-11.569-9.382-20.95-20.951-20.95c-11.57,0-20.951,9.381-20.951,20.95
						c0,11.57,9.381,20.951,20.951,20.951C387.77,2098.762,397.151,2089.381,397.151,2077.811z M394.532,2077.811
						c0,10.107-8.226,18.332-18.332,18.332c-10.107,0-18.332-8.225-18.332-18.332c0-9.969,8.005-18.092,17.922-18.312v6.398h-5.752
						c-0.91,0-1.644,0.736-1.644,1.644v18.897c0,0.908,0.732,2.466,1.644,2.466h12.324c0.905,0,1.643-0.734,1.643-1.644v-19.721
						c0-0.906-0.736-1.643-1.643-1.643h-5.752v-6.399C386.527,2059.719,394.532,2067.842,394.532,2077.811z M392.442,2076.457
						c-0.271-0.27-0.752-0.227-1.07,0.092l-1.166,1.164c-0.318,0.32-0.58,0.211-0.58-0.242v-4.094c0-0.453-0.311-0.822-0.688-0.822
						c-0.384,0-0.693,0.371-0.693,0.822v4.094c0,0.451-0.262,0.562-0.582,0.24l-1.162-1.162c-0.318-0.318-0.801-0.361-1.07-0.092
						c-0.27,0.271-0.229,0.752,0.093,1.072l2.834,2.832c0.319,0.32,0.842,0.32,1.161,0l2.834-2.832
						C392.671,2077.209,392.712,2076.729,392.442,2076.457z M366.585,2076.701c0.271-0.275,0.229-0.767-0.092-1.092l-2.855-2.888
						c-0.319-0.323-0.848-0.323-1.168,0l-2.854,2.888c-0.32,0.325-0.363,0.815-0.092,1.092c0.271,0.275,0.758,0.231,1.077-0.094
						l1.173-1.185c0.319-0.326,0.584-0.215,0.584,0.246v4.172c0,0.457,0.312,0.836,0.696,0.836c0.383,0,0.697-0.375,0.697-0.836
						v-4.174c0-0.461,0.262-0.572,0.584-0.244l1.172,1.185C365.829,2076.934,366.312,2076.977,366.585,2076.701z"/>
				</g>
			</g>
		</g>
		<g id="lift-2" display="inline">
			<g>
				<circle fill="#FFFFFF" cx="376.252" cy="1578.8" r="25.698"/>
			</g>
			<g>
				<g>
					<path fill="#231F20" d="M397.202,1578.801c0-11.569-9.381-20.951-20.95-20.951c-11.571,0-20.952,9.381-20.952,20.951
						s9.381,20.951,20.952,20.951C387.821,1599.752,397.202,1590.371,397.202,1578.801z M394.584,1578.801
						c0,10.107-8.226,18.332-18.332,18.332c-10.108,0-18.333-8.225-18.333-18.332c0-9.969,8.004-18.092,17.922-18.312v6.398h-5.752
						c-0.909,0-1.643,0.736-1.643,1.644v18.897c0,0.908,0.732,2.465,1.643,2.465h12.324c0.907,0,1.643-0.733,1.643-1.643v-19.721
						c0-0.906-0.734-1.644-1.643-1.644h-5.752v-6.398C386.577,1560.708,394.584,1568.832,394.584,1578.801z M392.494,1577.447
						c-0.271-0.271-0.753-0.228-1.071,0.092l-1.165,1.164c-0.318,0.32-0.58,0.211-0.58-0.242v-4.094
						c0-0.453-0.312-0.822-0.689-0.822c-0.383,0-0.692,0.371-0.692,0.822v4.094c0,0.451-0.263,0.562-0.583,0.24l-1.162-1.162
						c-0.317-0.318-0.8-0.361-1.068-0.092c-0.271,0.271-0.229,0.752,0.092,1.072l2.833,2.832c0.319,0.319,0.843,0.319,1.162,0
						l2.834-2.832C392.722,1578.199,392.763,1577.719,392.494,1577.447z M366.636,1577.691c0.271-0.275,0.229-0.767-0.092-1.093
						l-2.854-2.887c-0.32-0.324-0.849-0.324-1.169,0l-2.854,2.887c-0.321,0.326-0.364,0.816-0.092,1.093
						c0.271,0.274,0.757,0.231,1.078-0.095l1.171-1.184c0.319-0.326,0.585-0.215,0.585,0.246v4.172c0,0.457,0.312,0.836,0.695,0.836
						c0.385,0,0.697-0.375,0.697-0.836v-4.174c0-0.461,0.263-0.572,0.584-0.244l1.172,1.184
						C365.88,1577.924,366.364,1577.967,366.636,1577.691z"/>
				</g>
			</g>
		</g>
	</g>
	<g id="admin" display="none">
		<g display="inline">
			<path fill="#FFFFFF" d="M532.77,2006.343c0-14.192-11.506-25.698-25.696-25.698c-14.191,0-25.699,11.506-25.699,25.698
				c0,14.189,11.508,25.695,25.699,25.695C521.264,2032.038,532.77,2020.532,532.77,2006.343z"/>
		</g>
		<g display="inline">
			<g>
				<path fill="#231F20" d="M507.072,1985.39c-11.57,0-20.951,9.382-20.951,20.953c0,11.568,9.381,20.949,20.951,20.949
					c11.569,0,20.951-9.381,20.951-20.949C528.023,1994.771,518.643,1985.39,507.072,1985.39z M507.072,2024.675
					c-10.107,0-18.334-8.227-18.334-18.332c0-10.108,8.227-18.334,18.334-18.334c10.106,0,18.332,8.226,18.332,18.334
					C525.404,2016.448,517.18,2024.675,507.072,2024.675z"/>
			</g>
		</g>
		<g display="inline">
			<g>
				<g>
					<g>
						<g>
							<g>
								<path fill="#231F20" d="M504.236,2007.086l-1.16-0.005c0-0.042,0-0.084,0-0.131l1.164,0.007L504.236,2007.086z"/>
								<path fill="#231F20" d="M504.246,2006.763l-1.172-0.007c0-0.042,0-0.085,0-0.13l1.176,0.006L504.246,2006.763z"/>
							</g>
							<g>
								<path fill="#231F20" d="M511.809,2005.899l-0.052-0.119l1.116-0.431c0.016,0.041,0.03,0.082,0.044,0.12L511.809,2005.899z"
									/>
								<path fill="#231F20" d="M512.765,2005.046c0.016,0.041,0.028,0.082,0.044,0.12l-1.129,0.436l-0.053-0.119L512.765,2005.046z
									"/>
								<g>
									<path fill="#231F20" d="M512.594,2004.581c-0.393-1.062-1.774-4.752-2.035-5.046c-0.366-0.417-1.911-1.188-1.926-1.772
										c0,0-1.258,1.173-3.137,0c-0.012,0.587-1.133,1.13-1.752,1.509c-0.58,0.354-0.947,4.603-0.951,6.865c0,0,0,0.283,0,0.324
										l1.18,0.005l0.054-0.323l0.368-2.271l0.152,2.93h5.038l0.546-4c0,0,0.038-0.231,0.078-0.573l1.224,2.81L512.594,2004.581z"
										/>
									<path fill="#231F20" d="M511.498,2005.186l0.052,0.117l1.149-0.439c-0.002-0.003-0.019-0.049-0.048-0.128L511.498,2005.186
										z"/>
								</g>
								<path fill="#231F20" d="M512.984,2005.655c0.091,0.258,0.145,0.411,0.145,0.411l0,0c0.236,0.593,0.188,1.168-0.104,1.285
									c-0.295,0.115-0.724-0.27-0.957-0.863l-0.181-0.411L512.984,2005.655z"/>
							</g>
						</g>
					</g>
					<path fill="#231F20" d="M507.138,1993.048c-2.357,0-3.031,1.726-2.118,2.238c0,0,0.101,0.088,0.214,0.206
						c-0.002,0-0.002,0.001-0.002,0.001c-0.062,0.188-0.097,0.389-0.097,0.596c0,1.066,0.865,1.933,1.931,1.933
						c1.066,0,1.932-0.865,1.932-1.933c0-0.207-0.033-0.406-0.094-0.595c0.049-0.092,0.145-0.216,0.336-0.364
						C509.659,1994.805,509.496,1993.048,507.138,1993.048z M505.21,1995.188c0,0,0.806-0.598,1.929-0.612
						c1.122-0.019,1.771,0.508,1.771,0.508S507.299,1994.521,505.21,1995.188z"/>
				</g>
			</g>
			<path fill="#231F20" d="M520.989,2007.597c0,0.234-0.189,0.423-0.423,0.423h-26.991c-0.233,0-0.421-0.188-0.421-0.423v-0.75
				c0-0.229,0.188-0.422,0.421-0.422h26.991c0.232,0,0.423,0.191,0.423,0.422V2007.597z"/>
			<path fill="#231F20" d="M518.883,2015.214c0,0.232-0.188,0.421-0.42,0.421H495.68c-0.231,0-0.42-0.188-0.42-0.421v-5.916
				c0-0.231,0.188-0.42,0.42-0.42h22.783c0.232,0,0.42,0.188,0.42,0.42V2015.214z"/>
		</g>
	</g>
</g>
<g id="paths" display="none">
	
		<line display="inline" fill="none" stroke="#D2232A" stroke-miterlimit="10" x1="321.259" y1="1581.592" x2="321.259" y2="1137.817"/>
	
		<line display="inline" fill="none" stroke="#D2232A" stroke-miterlimit="10" x1="375.841" y1="1581.592" x2="321.259" y2="1581.592"/>
	
		<line id="entrance-A2.01" display="inline" fill="none" stroke="#ED1F24" stroke-miterlimit="10" x1="321.259" y1="1137.817" x2="407.926" y2="1137.817"/>
</g>
</svg>
