<?xml version="1.0" encoding="utf-8"?>
<!-- Generator: Adobe Illustrator 16.0.0, SVG Export Plug-In . SVG Version: 6.00 Build 0)  -->
<!DOCTYPE svg PUBLIC "-//W3C//DTD SVG 1.1//EN" "http://www.w3.org/Graphics/SVG/1.1/DTD/svg11.dtd">
<svg version="1.1" xmlns="http://www.w3.org/2000/svg" xmlns:xlink="http://www.w3.org/1999/xlink" x="0px" y="0px"
	 width="867.617px" height="1879.513px" viewBox="0 0 867.617 1879.513" enable-background="new 0 0 867.617 1879.513"
	 xml:space="preserve">
<g id="general_map">
	<path fill="#3F403F" d="M862.32,1363.966c5.367-132.617,6.655-265.365,3.864-398.066c-4.018-133.118-13.438-266.025-28.236-398.383
		l-16.002-171.841l-208.192,25.352l-23.042-248.584l-89.392,8.285C481.805,118.97,458.168,58.594,430.566,0L76.051,43.174
		c26.442,132.624,68.287,261.701,124.686,384.611l-59.55,17.07l16.924,59.024c16.341,173.048,12.327,347.42-11.954,519.542
		l58.457,16.227l-15.507,61.152l-58.429,19.186c-11.159,71.574-27.404,142.27-48.608,211.539
		c-5.84,19.037-11.704,38.061-17.598,57.076L0,1592.099l127.271,40.434l32.458-102.186l56.267,17.881
		c-11.663,87.129-17.441,174.951-17.283,262.854v68.432h617.052c25.498-156.232,40.595-313.99,45.19-472.221L862.32,1363.966z"/>
	<path fill="#FFFFFF" d="M372.613,1433.437c-33.654-17.264-30.377-90.805,7.312-164.256c9.858-19.211,21.506-37.217,34.141-52.77
		c14.236-17.527,29.318-31.455,43.941-40.57l12.642-7.043l5.205-1.719c12.72-4.455,24.084-4.326,33.249,0.381
		c7.508,3.854,13.268,10.553,17.191,19.76c0.033-0.084,9.502,0,9.502,0v21c0,0-4.063,0-4.115,0.094
		c1.072,9.883,0.863,21.957-0.708,34.266c-0.804,6.281-1.952,12.779-3.439,19.434c-3.905,17.475-10.077,35.799-18.158,53.891
		c-2.263,5.057-4.663,10.08-7.191,15.043l-6.138,10.846l-19.495,31.107c-7.967,10.957-16.376,20.887-24.97,29.486l16.933,128.082
		l-0.014,0.129l7.724,41.225l-178.769,33.484l-0.993,34.432H217.04c0,0,0.918-22.1,2.381-37.162
		c0.985-10.168,2.797-26.051,2.797-26.051l222.139-41.406l-12.555-115.564C409,1436.32,387.875,1441.271,372.613,1433.437z"/>
	
		<path id="store-3.03" fill-rule="evenodd" clip-rule="evenodd" fill="#D58F29" stroke="#FFFFFF" stroke-width="1.7789" stroke-miterlimit="3.8637" d="
		M789.629,1868.132c20.725-134.188,33.917-269.43,39.51-405.094L468.5,1530.597l7.724,41.225l-60.916,11.406v173.627h-59.26v67.658
		H524.99v-66.414h49.77v110.033H789.629z"/>
	<path id="store-3.01" fill="#D58F29" stroke="#FFFFFF" stroke-width="1.7789" stroke-miterlimit="3.8637" d="M462.573,102.172
		c13.339,34.762,25.318,70.029,35.916,105.723c13.298,44.792,24.399,90.206,33.268,136.083L215.66,434.597
		c-10.071-21.525-19.694-43.258-28.863-65.184c-13.021-31.128-25.123-62.629-36.292-94.469
		c-7.498-21.374-14.579-42.896-21.226-64.555c-15.973-52.004-29.478-104.741-40.458-158.026l335.355-40.838
		C438.008,41.295,450.815,71.528,462.573,102.172z"/>
	<path id="store-3.02" fill="#D58F29" stroke="#FFFFFF" stroke-width="1.7789" stroke-miterlimit="3.8637" d="M582.4,561.606
		c51.514,204.384,70.105,415.557,55.186,625.571c0.013,0.043-108.719,0.043-108.719,0.043s-3.134,0-2.609-0.084
		c-8.773-20.365-26.564-28.404-50.403-20.057c0,0-5.336,2.055-8.621,3.643c-3.705,1.787-9.226,5.119-9.226,5.119
		c-14.623,9.115-29.705,23.043-43.941,40.57v-29.094h-56.193c-4.011-70.156-6.364-192.273-7.064-263.863h-0.211
		c0.235-120.772,5.362-241.49,15.37-361.848H582.4z"/>
	<path id="store-3.05" fill="#D58F29" stroke="#FFFFFF" stroke-width="1.7789" stroke-miterlimit="3.8637" d="M509.375,1315.904
		c8.081-18.092,14.253-36.416,18.158-53.891l3.439-19.434c1.605-12.582,1.824-24.41,0.716-34.299
		c0.044-0.061,102.27-0.061,102.27-0.061h2.274c0,0-9.286,89.365-12.023,107.684c-4.976,33.316-8.072,54.68-12.965,81.881H507.278
		l-0.004-24.885h-30.963c8.346-11.773,16.646-25.035,24.899-39.768C503.741,1328.169,507.113,1320.96,509.375,1315.904z"/>
	<path id="store-3.04" fill="#D58F29" stroke="#FFFFFF" stroke-width="1.7789" stroke-miterlimit="3.8637" d="M217.04,1639.738
		c6.929,0,79.422,0,79.422,0v226.842c0,0-81.145,0.131-86.447,0.131C210.121,1818.707,208.45,1729.601,217.04,1639.738z"/>
	<g>
		<path fill-rule="evenodd" clip-rule="evenodd" fill="#3F403F" d="M311.881,1527.78l-11.466-56.915l-9.004-57.327l-19.191-227.22
			h142.846v30.449l-0.224,0.275c-12.499,15.385-24.266,33.572-34.027,52.596c-18.165,35.399-28.926,71.902-30.301,102.786
			c-1.363,30.61,6.647,51.963,22.555,60.123c4.549,2.335,9.698,3.519,15.304,3.519c12.617-0.001,27.43-5.989,42.837-17.317
			l1.399-1.028l12.842,118.211l-126.076,23.615L311.881,1527.78z"/>
		<path fill="#FFFFFF" d="M414.066,1187.318v29.094c-12.635,15.553-24.282,33.559-34.141,52.77
			c-37.69,73.451-40.966,146.992-7.312,164.256c4.732,2.429,10.025,3.629,15.76,3.629c12.761,0,27.697-5.944,43.43-17.512
			l12.555,115.564l-124.228,23.27l-7.274-30.838l-11.459-56.883l-8.997-57.285l-19.091-226.064h84.442H414.066 M416.066,1185.318h-2
			H357.75h-84.442h-2.176l0.183,2.168l19.091,226.064l0.006,0.071l0.011,0.071l8.997,57.285l0.006,0.042l0.009,0.042l11.459,56.883
			l0.006,0.032l0.007,0.032l7.274,30.838l0.438,1.858l1.876-0.352l124.228-23.27l1.82-0.341l-0.2-1.841l-12.555-115.564
			l-0.375-3.453l-2.798,2.058c-15.235,11.202-29.844,17.123-42.245,17.123c-5.446,0-10.441-1.146-14.847-3.408
			c-15.54-7.972-23.357-28.992-22.013-59.189c1.369-30.742,12.091-67.1,30.191-102.374c9.73-18.962,21.458-37.089,33.914-52.422
			l0.447-0.551v-0.71v-29.094V1185.318L416.066,1185.318z"/>
	</g>
	<path fill="#3F403F" stroke="#FFFFFF" stroke-width="2" stroke-miterlimit="10" d="M624.035,1397.748h40.404l-0.24,1.422
		l-2.386,14.125l-11.203,56.553l-6.222,27.76l-176.125,32.861l-16.682-128.121c8.594-8.602,17.003-18.529,24.97-29.486h30.723
		l0.004,24.887h103.967H624.035z"/>
	<path fill-rule="evenodd" clip-rule="evenodd" fill="#EA8C1C" d="M488.115,1351.921v-20.976h-35.979v20.976H488.115
		L488.115,1351.921z M488.115,1372.901v-20.979h-35.979v20.979H488.115L488.115,1372.901z"/>
	<path fill="none" stroke="#FFFFFF" stroke-width="1.7148" stroke-miterlimit="3.8637" d="M488.115,1351.921v-20.976h-35.979v20.976
		H488.115L488.115,1351.921z M488.115,1372.901v-20.979h-35.979v20.979H488.115L488.115,1372.901z"/>
	<path fill="#FFFFFF" d="M733.873,1660.133c1.029-0.021,1.827,0.63,1.827,1.68c0,0.924-0.63,1.617-1.596,1.617
		c-1.093,0-1.742-0.756-1.742-1.807v-0.42h-2.752c0.062,0.231,0.127,0.462,0.127,0.715c0,1.154-0.925,2.184-2.122,2.184
		c-1.281,0-2.12-0.945-2.12-2.205c0-1.302,0.986-2.205,2.246-2.205v-4.2c-1.386-0.042-3.024,0.861-3.99,1.806
		c-1.301,1.281-1.785,2.92-1.785,4.726c0,3.149,1.785,6.153,5.25,6.153c1.617,0,3.55-0.903,3.99-2.583
		c0.65,1.155,1.995,1.658,3.255,1.658c2.961,0,4.599-2.226,4.599-5.061c0-1.617-0.461-3.024-1.364-4.032
		c-0.902-1.008-2.163-1.68-3.822-1.848V1660.133L733.873,1660.133z"/>
	<path fill="#FFFFFF" d="M727.09,1673.982c0-1.365-1.093-2.457-2.458-2.457c-1.344,0-2.457,1.092-2.457,2.457
		s1.113,2.457,2.457,2.457C725.998,1676.439,727.09,1675.347,727.09,1673.982L727.09,1673.982z"/>
	<path fill-rule="evenodd" clip-rule="evenodd" fill="#FFFFFF" d="M739.059,1684.771c0-4.704-4.431-6.721-8.546-6.721
		c-4.116,0-8.548,1.996-8.548,6.721s4.432,6.72,8.548,6.72C734.628,1691.491,739.059,1689.475,739.059,1684.771L739.059,1684.771z
		 M735.426,1684.771c0,2.121-3.359,2.625-4.892,2.625c-1.534,0-4.937-0.504-4.937-2.625s3.402-2.625,4.937-2.625
		C732.067,1682.146,735.426,1682.65,735.426,1684.771L735.426,1684.771z"/>
	<path fill="#FFFFFF" d="M733.873,1697.318c1.029-0.021,1.827,0.631,1.827,1.681c0,0.924-0.63,1.617-1.596,1.617
		c-1.093,0-1.742-0.757-1.742-1.807v-0.42h-2.752c0.062,0.231,0.127,0.462,0.127,0.714c0,1.155-0.925,2.185-2.122,2.185
		c-1.281,0-2.12-0.945-2.12-2.205c0-1.303,0.986-2.205,2.246-2.205v-4.2c-1.386-0.042-3.024,0.86-3.99,1.807
		c-1.301,1.28-1.785,2.918-1.785,4.725c0,3.15,1.785,6.152,5.25,6.152c1.617,0,3.55-0.902,3.99-2.582
		c0.65,1.154,1.995,1.658,3.255,1.658c2.961,0,4.599-2.226,4.599-5.061c0-1.617-0.461-3.024-1.364-4.032
		c-0.902-1.008-2.163-1.68-3.822-1.848V1697.318L733.873,1697.318z"/>
	<path fill="#FFFFFF" d="M351.936,188.523c1.029-0.021,1.827,0.63,1.827,1.68c0,0.924-0.63,1.617-1.596,1.617
		c-1.093,0-1.743-0.756-1.743-1.806v-0.42h-2.751c0.062,0.231,0.126,0.462,0.126,0.714c0,1.155-0.924,2.185-2.121,2.185
		c-1.281,0-2.121-0.945-2.121-2.205c0-1.303,0.987-2.205,2.247-2.205v-4.2c-1.386-0.042-3.024,0.861-3.99,1.806
		c-1.302,1.281-1.785,2.919-1.785,4.725c0,3.15,1.785,6.153,5.25,6.153c1.617,0,3.55-0.903,3.99-2.583
		c0.65,1.155,1.995,1.659,3.255,1.659c2.961,0,4.599-2.226,4.599-5.061c0-1.617-0.462-3.024-1.364-4.032
		c-0.903-1.008-2.163-1.68-3.822-1.848V188.523L351.936,188.523z"/>
	<path fill="#FFFFFF" d="M345.152,201.176c0-1.365-1.092-2.457-2.457-2.457c-1.344,0-2.457,1.092-2.457,2.457
		c0,1.365,1.113,2.457,2.457,2.457C344.061,203.633,345.152,202.541,345.152,201.176L345.152,201.176z"/>
	<path fill-rule="evenodd" clip-rule="evenodd" fill="#FFFFFF" d="M357.122,211.964c0-4.704-4.431-6.72-8.547-6.72
		c-4.115,0-8.547,1.995-8.547,6.72s4.432,6.72,8.547,6.72C352.691,218.685,357.122,216.668,357.122,211.964L357.122,211.964z
		 M353.489,211.964c0,2.121-3.359,2.625-4.893,2.625s-4.936-0.504-4.936-2.625s3.402-2.625,4.936-2.625
		S353.489,209.843,353.489,211.964L353.489,211.964z"/>
	<polygon fill="#FFFFFF" points="353.007,224.806 340.658,224.806 340.658,228.922 356.492,228.922 356.492,222.538 
		353.007,222.538 353.007,224.806 	"/>
	<g>
		<path fill-rule="evenodd" clip-rule="evenodd" fill="#FFFFFF" d="M236.872,1769.336h9.408v-5.397l-9.934-6.111h-2.625v7.687
			h-3.275v3.822h3.275v1.91h3.15V1769.336L236.872,1769.336z M236.872,1765.514v-3.738l6.09,3.696v0.042H236.872L236.872,1765.514z"
			/>
		<path fill="#FFFFFF" d="M242.356,1724.411c1.029-0.021,1.827,0.63,1.827,1.68c0,0.924-0.63,1.617-1.596,1.617
			c-1.094,0-1.742-0.756-1.742-1.807v-0.42h-2.752c0.062,0.231,0.127,0.462,0.127,0.715c0,1.154-0.925,2.184-2.122,2.184
			c-1.282,0-2.12-0.945-2.12-2.205c0-1.302,0.986-2.205,2.246-2.205v-4.2c-1.387-0.042-3.025,0.861-3.99,1.806
			c-1.301,1.281-1.785,2.92-1.785,4.726c0,3.149,1.785,6.153,5.25,6.153c1.617,0,3.549-0.903,3.99-2.583
			c0.65,1.155,1.994,1.658,3.255,1.658c2.96,0,4.599-2.226,4.599-5.061c0-1.617-0.461-3.024-1.364-4.032s-2.163-1.68-3.822-1.848
			V1724.411L242.356,1724.411z"/>
		<path fill="#FFFFFF" d="M235.574,1738.259c0-1.365-1.093-2.457-2.458-2.457c-1.345,0-2.457,1.092-2.457,2.457
			s1.112,2.457,2.457,2.457C234.481,1740.716,235.574,1739.625,235.574,1738.259L235.574,1738.259z"/>
		<path fill-rule="evenodd" clip-rule="evenodd" fill="#FFFFFF" d="M247.543,1749.048c0-4.704-4.432-6.721-8.547-6.721
			s-8.547,1.996-8.547,6.721s4.432,6.72,8.547,6.72S247.543,1753.752,247.543,1749.048L247.543,1749.048z M243.91,1749.048
			c0,2.121-3.359,2.625-4.893,2.625s-4.936-0.504-4.936-2.625s3.402-2.625,4.936-2.625S243.91,1746.927,243.91,1749.048
			L243.91,1749.048z"/>
	</g>
	<g>
		<path fill="#FFFFFF" d="M383.299,632.119c0-1.365-1.093-2.457-2.458-2.457c-1.345,0-2.457,1.092-2.457,2.457
			s1.112,2.457,2.457,2.457C382.207,634.576,383.299,633.484,383.299,632.119L383.299,632.119z"/>
		<path fill="#FFFFFF" d="M390.08,619.037c1.029-0.021,1.826,0.63,1.826,1.68c0,0.924-0.629,1.617-1.594,1.617
			c-1.092,0-1.744-0.756-1.744-1.806v-0.42h-2.75c0.062,0.231,0.125,0.462,0.125,0.714c0,1.155-0.924,2.184-2.121,2.184
			c-1.281,0-2.121-0.945-2.121-2.205c0-1.302,0.988-2.205,2.248-2.205v-4.2c-1.387-0.042-3.025,0.861-3.99,1.806
			c-1.303,1.281-1.785,2.919-1.785,4.725c0,3.15,1.785,6.153,5.25,6.153c1.617,0,3.549-0.903,3.99-2.583
			c0.65,1.155,1.994,1.658,3.254,1.658c2.961,0,4.6-2.226,4.6-5.061c0-1.617-0.463-3.024-1.365-4.032
			c-0.902-1.008-2.162-1.68-3.822-1.848V619.037L390.08,619.037z"/>
		<path fill-rule="evenodd" clip-rule="evenodd" fill="#FFFFFF" d="M395.267,643.224c0-4.704-4.432-6.721-8.547-6.721
			s-8.547,1.995-8.547,6.721c0,4.725,4.432,6.72,8.547,6.72S395.267,647.928,395.267,643.224L395.267,643.224z M391.634,643.224
			c0,2.121-3.361,2.625-4.893,2.625c-1.533,0-4.936-0.504-4.936-2.625s3.402-2.625,4.936-2.625
			C388.273,640.599,391.634,641.103,391.634,643.224L391.634,643.224z"/>
		<path fill="#FFFFFF" d="M382.289,658.649l2.289,2.456c1.471,1.617,2.793,2.562,5.062,2.562c3.441,0,5.627-2.793,5.627-6.111
			c0-3.737-2.457-6.048-6.09-6.174v4.536c0.23-0.042,0.463-0.063,0.672-0.063c1.07,0,1.932,0.609,1.932,1.723
			c0,1.092-1.049,1.806-2.057,1.806c-1.451,0-2.879-0.882-3.885-1.806l-7.035-6.468v12.726h3.484V658.649L382.289,658.649z"/>
	</g>
	<g>
		<path fill="#FFFFFF" d="M569.923,1340.467c0,1.378,0.556,2.289,2.045,2.289c1.289,0,1.978-0.911,1.978-2.111
			c0-0.2-0.021-0.4-0.044-0.601h2.934c-0.066,0.2-0.111,0.423-0.111,0.645c0,0.934,0.645,1.489,1.557,1.512
			c0.978,0,1.467-0.711,1.467-1.667c0-1-0.845-1.312-1.667-1.533v-3.868c3.733,0.512,4.756,2.623,4.756,6.157
			c0,2.601-1.422,4.778-4.2,4.778c-1.423,0-2.29-0.488-3.156-1.6c-0.712,1.733-1.956,2.467-3.801,2.467
			c-3.379,0-5.335-2.689-5.335-5.89c0-4.335,1.578-6.135,5.868-6.69v4.2C571.124,1338.711,569.923,1339.2,569.923,1340.467z"/>
		<path fill="#FFFFFF" d="M568.901,1353.825c-1.334,0-2.445-1.022-2.445-2.378s1.089-2.445,2.445-2.445
			c1.312,0,2.355,1.134,2.355,2.423C571.256,1352.736,570.212,1353.825,568.901,1353.825z"/>
		<path fill="#FFFFFF" d="M582.859,1361.405c0,4.667-4.29,6.112-8.224,6.112c-4.268,0-8.246-1.712-8.246-6.535
			c0-4.689,4.156-6.312,8.18-6.312c4.4,0,8.29,1.756,8.29,6.713V1361.405z M579.281,1361.182c0-2.134-3.201-2.289-4.734-2.289
			c-1.423,0-4.579,0.222-4.602,2.2c0,2.045,3.112,2.267,4.602,2.267C575.991,1363.36,579.281,1363.205,579.281,1361.182z"/>
		<path fill="#FFFFFF" d="M569.967,1374.496c0,1.245,0.733,2.512,2.111,2.534c2.001,0,2.49-1.845,2.49-3.512
			c0-0.89-0.267-2.223-0.623-3.023l8.535,1.445v8.312h-3.623v-5.224l-1.756-0.311c0.111,0.6,0.134,1.222,0.134,1.822
			c0,2.89-2.468,4.689-5.179,4.689c-3.623,0-5.646-2.556-5.646-6.023c0-2.355,0.533-3.667,1.733-5.646l3.646,0.623
			C570.634,1371.384,569.967,1372.851,569.967,1374.496z"/>
	</g>
</g>
<g id="icons">
	<g id="escalators" display="none">
		<g id="escalator-updown-2" display="inline">
			<g>
				<path fill="#FFFFFF" d="M358.995,1451.651c0-14.191-11.507-25.699-25.696-25.699c-14.194,0-25.7,11.508-25.7,25.699
					c0,14.19,11.506,25.697,25.7,25.697C347.488,1477.348,358.995,1465.841,358.995,1451.651z"/>
			</g>
			<g>
				<g>
					<path fill="#231F20" d="M333.638,1430.699c-11.568,0-20.95,9.382-20.95,20.952c0,11.569,9.382,20.951,20.95,20.951
						c11.57,0,20.953-9.382,20.953-20.951C354.591,1440.081,345.208,1430.699,333.638,1430.699z M333.638,1469.983
						c-10.107,0-18.332-8.225-18.332-18.332s8.225-18.333,18.332-18.333s18.334,8.226,18.334,18.333
						S343.745,1469.983,333.638,1469.983z M330.385,1443.432c0.765,0,1.388-0.645,1.388-1.438s-0.623-1.438-1.388-1.438
						c-0.767,0-1.386,0.645-1.386,1.438S329.618,1443.432,330.385,1443.432z M344.053,1443.805l-5.176,0.084l-12.693,13.16h-2.188
						c-1.706,0.033-3.082,1.479-3.082,3.256c0,1.771,1.364,3.221,3.141,3.256l5.226,0.004l12.778-13.248l2.046,0.002
						c1.706-0.033,3.081-1.479,3.081-3.257C347.185,1445.293,345.823,1443.844,344.053,1443.805z M341.963,1449.62l-12.907,13.379
						h-1.4v-2.487h2.383v-2.47h2.381v-2.471h2.385v-2.471h2.383v-2.471h2.384v-2.47h2.393V1449.62z M333.396,1446.799l-1.355,1.396
						v-2.425c0-2.291-3.314-2.291-3.314,0v7.31l6.214-6.433C334.471,1446.31,333.819,1446.362,333.396,1446.799z"/>
				</g>
			</g>
		</g>
		<g id="escalator-updown-1" display="inline">
			<g>
				<circle fill="#FFFFFF" cx="452.94" cy="254.91" r="25.698"/>
			</g>
			<g>
				<g>
					<path fill="#231F20" d="M453.282,233.958c-11.57,0-20.951,9.381-20.951,20.951s9.381,20.951,20.951,20.951
						s20.951-9.381,20.951-20.951S464.852,233.958,453.282,233.958z M453.282,273.242c-10.108,0-18.333-8.225-18.333-18.332
						s8.225-18.332,18.333-18.332c10.106,0,18.332,8.225,18.332,18.332S463.388,273.242,453.282,273.242z M463.695,247.066
						l-5.173,0.083l-12.695,13.16h-2.189c-1.705,0.032-3.081,1.478-3.081,3.257c0,1.77,1.365,3.219,3.141,3.256l5.227,0.004
						l12.777-13.248l2.045,0.001c1.709-0.033,3.084-1.479,3.084-3.257C466.83,248.554,465.468,247.105,463.695,247.066z
						 M461.606,252.88l-12.905,13.379h-1.404v-2.488h2.384V261.3h2.384v-2.47h2.383v-2.472h2.383v-2.471h2.383v-2.469h2.394V252.88z
						 M450.029,246.691c0.766,0,1.386-0.643,1.386-1.436c0-0.794-0.62-1.438-1.386-1.438c-0.767,0-1.387,0.644-1.387,1.438
						C448.642,246.048,449.262,246.691,450.029,246.691z M453.041,250.058l-1.354,1.396v-2.425c0-2.292-3.314-2.292-3.314,0v7.31
						l6.212-6.434C454.114,249.57,453.461,249.621,453.041,250.058z"/>
				</g>
			</g>
		</g>
	</g>
	<g id="lifts" display="none">
		<g id="lift-3" display="inline">
			<g>
				<circle fill="#FFFFFF" cx="246.362" cy="1627.276" r="25.697"/>
			</g>
			<g>
				<g>
					<path fill-rule="evenodd" clip-rule="evenodd" fill="#231F20" d="M246.362,1606.324c-11.57,0-20.951,9.382-20.951,20.953
						c0,11.57,9.381,20.951,20.951,20.951s20.951-9.381,20.951-20.951C267.313,1615.706,257.933,1606.324,246.362,1606.324z
						 M246.362,1645.609c-10.107,0-18.332-8.226-18.332-18.332c0-9.97,8.005-18.091,17.922-18.312v6.398H240.2
						c-0.906,0-1.643,0.735-1.643,1.643v19.718c0,0.908,0.736,1.645,1.643,1.645h12.324c0.908,0,1.643-1.558,1.643-2.465v-18.897
						c0-0.907-0.734-1.643-1.643-1.643h-5.752v-6.398c9.917,0.222,17.923,8.343,17.923,18.312
						C264.695,1637.383,256.47,1645.609,246.362,1645.609z M236.063,1626.014l-1.162,1.162c-0.319,0.32-0.582,0.212-0.582-0.24
						v-4.095c0-0.45-0.311-0.82-0.693-0.82c-0.379,0-0.689,0.368-0.689,0.82v4.097c0,0.452-0.262,0.559-0.58,0.24l-1.166-1.164
						c-0.318-0.318-0.801-0.359-1.07-0.091c-0.27,0.271-0.228,0.751,0.092,1.069l2.834,2.835c0.32,0.317,0.842,0.317,1.162,0
						l2.834-2.835c0.32-0.318,0.361-0.798,0.092-1.069C236.864,1625.655,236.382,1625.696,236.063,1626.014z M262.946,1625.076
						l-2.853-2.888c-0.321-0.326-0.848-0.326-1.169,0l-2.855,2.888c-0.32,0.324-0.363,0.815-0.091,1.09
						c0.271,0.274,0.755,0.232,1.077-0.093l1.173-1.187c0.321-0.324,0.583-0.214,0.583,0.246v4.176c0,0.461,0.314,0.835,0.697,0.835
						c0.385,0,0.697-0.376,0.697-0.835v-4.173c0-0.463,0.264-0.571,0.585-0.247l1.171,1.185c0.32,0.325,0.807,0.367,1.078,0.093
						S263.269,1625.4,262.946,1625.076z"/>
				</g>
			</g>
		</g>
		<g id="lift-2" display="inline">
			<g>
				<path fill="#FFFFFF" d="M457.961,1392.67c14.192,0,25.699-11.506,25.699-25.696c0-14.191-11.507-25.698-25.699-25.698
					c-14.189,0-25.695,11.507-25.695,25.698C432.266,1381.165,443.772,1392.67,457.961,1392.67z"/>
			</g>
			<g>
				<g>
					<path fill-rule="evenodd" clip-rule="evenodd" fill="#231F20" d="M457.961,1346.021c-11.569,0-20.95,9.382-20.95,20.953
						c0,11.57,9.381,20.951,20.95,20.951c11.572,0,20.953-9.381,20.953-20.951C478.915,1355.403,469.534,1346.021,457.961,1346.021z
						 M457.961,1385.306c-10.105,0-18.332-8.226-18.332-18.332c0-9.971,8.008-18.092,17.923-18.312v6.398H451.8
						c-0.907,0-1.643,0.735-1.643,1.643v19.718c0,0.908,0.735,1.645,1.643,1.645h12.325c0.908,0,1.643-1.558,1.643-2.465v-18.897
						c0-0.907-0.734-1.643-1.643-1.643h-5.752v-6.398c9.917,0.223,17.922,8.343,17.922,18.312
						C476.295,1377.081,468.07,1385.306,457.961,1385.306z M447.664,1365.711l-1.162,1.162c-0.319,0.32-0.583,0.212-0.583-0.24
						v-4.095c0-0.45-0.31-0.82-0.691-0.82c-0.38,0-0.691,0.368-0.691,0.82v4.097c0,0.452-0.26,0.559-0.58,0.24l-1.164-1.164
						c-0.318-0.318-0.801-0.359-1.072-0.091c-0.269,0.271-0.227,0.751,0.093,1.069l2.835,2.835c0.318,0.317,0.842,0.317,1.162,0
						l2.832-2.835c0.32-0.318,0.361-0.798,0.092-1.069C448.463,1365.352,447.983,1365.393,447.664,1365.711z M474.547,1364.773
						l-2.854-2.888c-0.321-0.326-0.848-0.326-1.169,0l-2.854,2.888c-0.322,0.324-0.363,0.815-0.092,1.09s0.756,0.232,1.078-0.093
						l1.172-1.187c0.32-0.324,0.584-0.214,0.584,0.246v4.176c0,0.461,0.312,0.835,0.696,0.835s0.696-0.376,0.696-0.835v-4.173
						c0-0.463,0.266-0.571,0.586-0.247l1.17,1.185c0.322,0.325,0.807,0.367,1.078,0.093
						C474.913,1365.588,474.87,1365.097,474.547,1364.773z"/>
				</g>
			</g>
		</g>
	</g>
</g>
<g id="paths" display="none">
	
		<line display="inline" fill="none" stroke="#ED1C24" stroke-width="1.7789" stroke-miterlimit="3.8637" x1="457.585" y1="1280.491" x2="481.021" y2="1222.32"/>
	
		<line id="entrance-3.04" display="inline" fill="none" stroke="#ED1C24" stroke-width="1.7789" stroke-miterlimit="3.8637" x1="253.206" y1="1593.101" x2="253.206" y2="1655.491"/>
	
		<line display="inline" fill="none" stroke="#ED1C24" stroke-width="1.7789" stroke-miterlimit="3.8637" x1="437.955" y1="1557.847" x2="253.206" y2="1593.101"/>
	
		<line display="inline" fill="none" stroke="#ED1C24" stroke-width="1.7789" stroke-miterlimit="3.8637" x1="457.585" y1="1554.101" x2="437.955" y2="1557.847"/>
	
		<line display="inline" fill="none" stroke="#ED1C24" stroke-width="1.7789" stroke-miterlimit="3.8637" x1="433.808" y1="1334.355" x2="457.585" y2="1554.101"/>
	
		<line display="inline" fill="none" stroke="#ED1C24" stroke-width="1.7789" stroke-miterlimit="3.8637" x1="457.585" y1="1280.491" x2="433.808" y2="1334.355"/>
	
		<line id="entrance-3.05" display="inline" fill="none" stroke="#ED1C24" stroke-width="1.7789" stroke-miterlimit="3.8637" x1="526.639" y1="1303.002" x2="457.585" y2="1280.491"/>
	
		<line id="entrance-3.02" display="inline" fill="none" stroke="#ED1C24" stroke-width="1.7789" stroke-miterlimit="3.8637" x1="470.125" y1="1154.77" x2="481.021" y2="1222.32"/>
	
		<line id="entrance-3.03" display="inline" fill="none" stroke="#ED1C24" stroke-width="1.7789" stroke-miterlimit="3.8637" x1="443.44" y1="1587.935" x2="437.955" y2="1557.847"/>
	
		<line id="entrance-3.01" display="inline" fill="none" stroke="#ED1C24" stroke-width="1.7789" stroke-miterlimit="3.8637" x1="412.606" y1="255.322" x2="371.272" y2="255.322"/>
</g>
</svg>
